<svg width="75" height="75" viewBox="0 0 75 75" fill="none" xmlns="http://www.w3.org/2000/svg">
<path d="M15.8203 16.875C7.14844 16.875 1.40625 28.8281 1.40625 39.9609C1.40625 50.8594 6.67969 59.5312 13.8281 60.9375V71.4844C13.8281 72.6562 14.7656 73.5938 15.9375 73.5938C17.1094 73.5938 18.0469 72.6562 18.0469 71.4844V60.8203C25.0781 59.2969 30.3516 50.625 30.3516 39.8438C30.2344 28.8281 24.375 16.875 15.8203 16.875ZM17.9297 56.6016V49.8047C17.9297 48.6328 16.9922 47.6953 15.8203 47.6953C14.6484 47.6953 13.7109 48.6328 13.7109 49.8047V56.6016C9.14062 55.0781 5.50781 48.0469 5.50781 39.9609C5.50781 30.2344 10.5469 20.9766 15.8203 20.9766C21.0937 20.9766 26.1328 30.2344 26.1328 39.9609C26.1328 47.9297 22.5 54.9609 17.9297 56.6016Z" fill="#EAE3E1" fill-opacity="0.7"/>
<path d="M73.5937 30.9375C73.5937 16.9922 66.4453 1.52344 56.0156 1.52344C45.5859 1.52344 38.4375 17.1094 38.4375 30.9375C38.4375 45 45.1172 56.25 53.9062 57.7734V71.4844C53.9062 72.6563 54.8437 73.5938 56.0156 73.5938C57.1875 73.5938 58.125 72.6563 58.125 71.4844V57.7734C66.9141 56.3672 73.5937 45.1172 73.5937 30.9375ZM58.125 53.5547V43.5938C58.125 42.4219 57.1875 41.4844 56.0156 41.4844C54.8437 41.4844 53.9062 42.4219 53.9062 43.5938V53.5547C47.5781 51.7969 42.5391 42.1875 42.5391 30.9375C42.5391 17.9297 49.1016 5.625 56.0156 5.625C62.9297 5.625 69.4922 17.9297 69.4922 30.9375C69.4922 42.1875 64.4531 51.9141 58.125 53.5547Z" fill="#EAE3E1" fill-opacity="0.7"/>
</svg>
