<svg width="75" height="75" viewBox="0 0 75 75" fill="none" xmlns="http://www.w3.org/2000/svg">
<path d="M73.5938 51.9141C73.5938 45.5859 68.6719 40.6641 62.3438 40.6641C56.1328 40.6641 50.9766 45.7031 50.9766 51.9141C50.9766 56.0156 55.4297 63.3984 58.3594 67.8516H21.2109C19.3359 67.8516 17.4609 67.1484 16.1719 65.7422C14.4141 63.9844 13.7109 61.5234 14.1797 59.0625C14.7656 55.7812 17.9297 53.4375 21.5625 53.4375H33.5156C36.5625 53.4375 39.375 52.2656 41.4844 50.1562C44.6484 46.9922 45.5859 42.5391 44.1797 38.3203C42.6562 33.8672 38.3203 30.8203 33.2812 30.8203H16.6406C19.5703 26.25 24.1406 18.3984 24.1406 14.2969C24.1406 7.96875 19.2188 3.04688 12.8906 3.04688C6.67969 3.04688 1.52344 8.08594 1.52344 14.2969C1.52344 19.6875 9.49219 31.6406 11.1328 33.9844C11.25 34.1016 11.25 34.2187 11.3672 34.3359L11.4844 34.4531C11.6016 34.5703 11.6016 34.5703 11.7188 34.6875C11.7188 34.6875 11.8359 34.6875 11.8359 34.8047C11.9531 34.8047 12.0703 34.9219 12.1875 34.9219H12.3047C12.4219 34.9219 12.6562 34.9219 12.7734 34.9219H33.3984C36.5625 34.9219 39.4922 36.7969 40.4297 39.6094C41.3672 42.4219 40.7812 45.2344 38.6719 47.2266C37.3828 48.6328 35.5078 49.3359 33.6328 49.3359H21.6797C16.0547 49.3359 11.3672 53.0859 10.3125 58.3594C9.49219 62.1094 10.6641 65.9766 13.3594 68.6719C15.4687 70.7812 18.2813 71.9531 21.3281 71.9531H62.3438C62.4609 71.9531 62.6953 71.9531 62.8125 71.9531H62.9297C63.0469 71.9531 63.1641 71.8359 63.2812 71.8359C63.2812 71.8359 63.3984 71.8359 63.3984 71.7187C63.5156 71.7187 63.5156 71.6016 63.6328 71.6016L63.75 71.4844C63.8672 71.3672 63.8672 71.3672 63.9844 71.25C63.9844 71.25 63.9844 71.25 64.1016 71.1328C65.5078 68.9062 73.5938 57.4219 73.5938 51.9141ZM12.7734 7.14844C16.7578 7.14844 19.9219 10.3125 19.9219 14.2969C19.9219 16.9922 16.0547 24.0234 12.7734 29.1797C9.49219 24.0234 5.50781 16.9922 5.50781 14.2969C5.625 10.3125 8.78906 7.14844 12.7734 7.14844ZM62.3438 44.8828C66.3281 44.8828 69.4922 48.0469 69.4922 52.0312C69.4922 54.7266 65.625 61.5234 62.3438 66.4453C59.0625 61.5234 55.1953 54.8438 55.1953 52.0312C55.0781 48.0469 58.2422 44.8828 62.3438 44.8828Z" fill="#EAE3E1" fill-opacity="0.7"/>
<path d="M65.2734 51.0937C65.2734 49.3359 63.8672 47.9297 62.2266 47.9297C60.4687 47.9297 59.1797 49.3359 59.1797 51.0937C59.1797 52.8516 60.5859 54.2578 62.2266 54.2578C63.9844 54.1406 65.2734 52.7344 65.2734 51.0937Z" fill="#EAE3E1" fill-opacity="0.7"/>
<path d="M15.8203 13.3594C15.8203 11.6016 14.4141 10.1953 12.7734 10.1953C11.1328 10.1953 9.72656 11.6016 9.72656 13.3594C9.72656 15.1172 11.0156 16.4062 12.7734 16.4062C14.5312 16.4062 15.8203 15 15.8203 13.3594Z" fill="#EAE3E1" fill-opacity="0.7"/>
</svg>
