<svg width="75" height="75" viewBox="0 0 75 75" fill="none" xmlns="http://www.w3.org/2000/svg">
<path d="M64.4531 30.5859C62.5781 30.5859 60.7031 31.1719 59.2969 32.2266V27.6562C59.2969 26.0156 58.125 24.8438 56.4844 24.8438H6.09375C4.45312 24.8438 3.28125 26.0156 3.28125 27.6562V43.0078C3.28125 55.8984 13.125 66.5625 25.6641 67.8516H3.51562C2.34375 67.8516 1.40625 68.7891 1.40625 69.9609C1.40625 71.1328 2.34375 71.9531 3.51562 71.9531H59.0625C60.2344 71.9531 61.1719 71.0156 61.1719 69.8437C61.1719 68.6719 60.2344 67.7344 59.0625 67.7344H36.9141C46.7578 66.6797 54.9609 59.8828 58.0078 50.7422C59.6484 52.3828 61.9922 53.4375 64.4531 53.4375C67.0312 53.4375 69.375 52.3828 71.1328 50.625C72.7734 48.8672 73.5937 46.6406 73.4766 44.4141V39.375C73.4766 34.5703 69.4922 30.5859 64.4531 30.5859ZM55.1953 43.0078C55.1953 54.4922 45.8203 63.8672 34.2187 63.8672H28.2422C16.7578 63.8672 7.38281 54.4922 7.38281 43.0078V28.8281H55.1953V43.0078ZM68.2031 48.0469C67.2656 48.9844 65.9766 49.5703 64.5703 49.5703C61.875 49.5703 59.6484 47.3437 59.6484 44.6484V39.6094C59.6484 36.9141 61.875 34.6875 64.5703 34.6875C67.2656 34.6875 69.4922 36.9141 69.4922 39.6094V44.6484C69.4922 45.9375 69.0234 47.1094 68.2031 48.0469Z" fill="#EAE3E1" fill-opacity="0.7"/>
<path d="M15.3516 17.9297C16.5234 17.9297 17.4609 16.9922 17.4609 15.8203V5.15625C17.4609 3.98438 16.5234 3.04688 15.3516 3.04688C14.1797 3.04688 13.2422 3.98438 13.2422 5.15625V15.9375C13.3594 16.9922 14.2969 17.9297 15.3516 17.9297Z" fill="#EAE3E1" fill-opacity="0.7"/>
<path d="M31.2891 17.9297C32.4609 17.9297 33.3984 16.9922 33.3984 15.8203V5.15625C33.3984 3.98438 32.4609 3.04688 31.2891 3.04688C30.1172 3.04688 29.2969 3.98438 29.2969 5.15625V15.9375C29.2969 16.9922 30.1172 17.9297 31.2891 17.9297Z" fill="#EAE3E1" fill-opacity="0.7"/>
<path d="M47.2266 17.9297C48.3984 17.9297 49.3359 16.9922 49.3359 15.8203V5.15625C49.3359 3.98438 48.3984 3.04688 47.2266 3.04688C46.0547 3.04688 45.1172 3.98438 45.1172 5.15625V15.9375C45.1172 16.9922 46.0547 17.9297 47.2266 17.9297Z" fill="#EAE3E1" fill-opacity="0.7"/>
</svg>
