<svg width="75" height="75" viewBox="0 0 75 75" fill="none" xmlns="http://www.w3.org/2000/svg">
<path d="M73.3594 17.1094C73.125 14.5312 71.1328 12.5391 68.6719 12.4219C63.0469 11.9531 52.3828 12.3047 45.2344 19.6875C43.0078 22.0312 41.25 24.9609 39.8438 28.0078C39.4922 22.5 37.8516 15.4688 32.8125 10.3125C25.5469 2.8125 13.3594 1.52344 6.67969 1.52344C6.67969 1.52344 6.67969 1.52344 6.5625 1.52344C3.98438 1.52344 1.75781 3.51562 1.52344 6.21094C1.05469 12.7734 1.17188 24.9609 8.4375 32.3438C14.1797 38.3203 23.3203 39.4922 29.7656 39.4922C31.9922 39.4922 33.9844 39.375 35.3906 39.1406V71.4844C35.3906 72.6562 36.3281 73.5938 37.5 73.5938C38.6719 73.5938 39.6094 72.6562 39.6094 71.4844V51.5625C40.1953 51.5625 40.7813 51.5625 41.4844 51.5625C47.9297 51.5625 59.6484 50.5078 66.5625 43.3594C74.0625 35.7422 73.8281 22.3828 73.3594 17.1094ZM11.4844 29.4141C5.03906 22.9688 5.27344 11.25 5.625 6.5625C5.625 5.97656 6.09375 5.625 6.67969 5.625C11.4844 5.625 23.4375 6.5625 29.8828 13.125C36.5625 19.9219 36.0938 31.0547 35.625 35.0391C31.2891 35.5078 18.1641 36.4453 11.4844 29.4141ZM63.5156 40.6641C56.7188 47.5781 43.7109 47.6953 39.6094 47.5781C39.8438 43.3594 41.25 29.6484 48.1641 22.6172C54.4922 16.1719 64.4531 16.1719 68.3203 16.5234C68.7891 16.5234 69.1406 16.9922 69.2578 17.4609C69.7266 22.2656 69.9609 34.1016 63.5156 40.6641Z" fill="#EAE3E1" fill-opacity="0.7"/>
</svg>
