<svg width="50" height="49" viewBox="0 0 50 49" fill="none" xmlns="http://www.w3.org/2000/svg">
<g clip-path="url(#clip0_16:2)">
<path d="M21.1667 0.640821C21.1667 1.19011 21.1917 1.3316 21.3334 1.4814C21.7584 1.93082 22.25 1.7394 22.25 1.12353C22.25 0.749014 22.075 0.524304 21.4834 0.174755L21.1667 -0.0166643V0.640821Z" fill="white" fill-opacity="0.75"/>
<path d="M26.625 0.299615C25.75 0.599228 25.3583 1.11523 25.5833 1.66452C25.7 1.94749 25.95 2.03904 26.3667 1.96413C26.8917 1.86426 27.175 1.41484 27.3 0.466066C27.3333 0.258002 27.325 0.0832271 27.2833 0.0915497C27.2417 0.0915497 26.95 0.183098 26.625 0.299615Z" fill="white" fill-opacity="0.75"/>
<path d="M23.9334 1.12352C23.7834 1.4481 23.8084 1.87255 23.9834 2.02236C24.1917 2.21378 24.3084 2.19713 24.4667 1.95578C24.6251 1.71442 24.5834 1.45642 24.3251 1.14016C24.1084 0.865519 24.0501 0.857197 23.9334 1.12352Z" fill="white" fill-opacity="0.75"/>
<path d="M22.6667 1.21509C22.3167 1.5147 22.35 1.78103 22.7334 1.81432C22.9667 1.83928 23.0667 1.78935 23.3417 1.49806C23.5167 1.31496 23.6667 1.12354 23.6667 1.08193C23.6667 1.03199 23.5 0.998702 23.3 0.998702C23.025 0.998702 22.8667 1.05696 22.6667 1.21509Z" fill="white" fill-opacity="0.75"/>
<path d="M34.675 1.70611C34.3917 2.0307 34.375 2.09728 34.525 2.43018C34.6167 2.63824 34.6417 2.65489 34.825 2.55502C34.9333 2.50508 35.0583 2.39689 35.1083 2.32199C35.2 2.17218 35.1167 1.41482 35 1.41482C34.9667 1.41482 34.8167 1.54799 34.675 1.70611Z" fill="white" fill-opacity="0.75"/>
<path d="M17.2667 1.70612C17.075 2.13057 17.1834 2.49677 17.5167 2.49677C17.775 2.49677 17.8583 2.19715 17.6917 1.85593C17.5 1.47309 17.3917 1.43147 17.2667 1.70612Z" fill="white" fill-opacity="0.75"/>
<path d="M18.2916 1.78934C17.875 2.19714 18.1333 2.66321 18.7583 2.66321C19.025 2.66321 19.125 2.60495 19.45 2.23876C19.6583 2.00572 19.8333 1.78101 19.8333 1.74772C19.8333 1.64785 19.5 1.58127 18.975 1.58127C18.575 1.58127 18.4583 1.61456 18.2916 1.78934Z" fill="white" fill-opacity="0.75"/>
<path d="M28.3 1.90586C28.0334 2.18051 28.025 2.6216 28.275 2.77973C28.5417 2.94618 28.7083 2.73812 28.7083 2.25541C28.7 1.68947 28.5917 1.59792 28.3 1.90586Z" fill="white" fill-opacity="0.75"/>
<path d="M14.9001 2.32202C14.4084 2.81305 14.3001 3.02112 14.3751 3.40396C14.4334 3.73686 14.7834 4.24454 14.9501 4.24454C15.2834 4.24454 15.8251 3.47886 15.8334 2.99615C15.8334 2.78808 15.4334 1.90589 15.3417 1.92253C15.3167 1.93086 15.1167 2.10563 14.9001 2.32202Z" fill="white" fill-opacity="0.75"/>
<path d="M22.025 2.01405C21.4167 2.77141 21.575 3.90328 22.5084 5.62606C23.9334 8.23103 24.1834 8.98007 24.0084 10.1119C23.9584 10.4448 23.8417 10.9276 23.75 11.1772C23.4667 11.9263 21.3917 14.989 20.7 15.6798L20.4584 15.9128L20.3167 15.5965C20.1084 15.1305 20.1167 14.1234 20.3417 13.4576C20.4834 13.0332 21.475 11.3936 21.6584 11.2854C21.6834 11.2688 21.7084 11.3687 21.7084 11.5101C21.7084 11.7099 21.7667 11.8014 21.975 11.9263C22.3417 12.1427 22.65 12.0594 23.1417 11.6183L23.5334 11.2605L22.9667 11.069C22.45 10.9026 22.375 10.8943 22.1 11.0025L21.7917 11.119L22.0584 10.603C22.5584 9.61258 22.5167 8.63884 21.925 7.44871C21.6667 6.93271 21.3834 6.54987 20.7 5.8258C19.5834 4.61903 19.05 3.91161 19.1667 3.79509C19.3084 3.6536 19.2584 3.28741 19.075 3.04606C18.85 2.76309 18.7917 2.77141 18.6834 3.12928C18.5834 3.47051 18.675 3.82838 18.8667 3.82838C18.925 3.82838 19.0417 3.98651 19.1167 4.16961C19.3084 4.65232 19.625 5.08509 20.45 6.02554C20.8417 6.47496 21.2584 7.0409 21.375 7.2989C21.85 8.28929 21.9417 9.53768 21.5917 10.2201C21.5084 10.3866 21.2 10.8277 20.9167 11.1939C20.625 11.5601 20.2834 12.0261 20.1584 12.2259C19.95 12.5505 19.9167 12.5754 19.9167 12.3923C19.9 11.2272 19.7334 9.62091 19.5834 9.22974C19.4917 8.98007 19.4167 8.75536 19.4167 8.73039C19.4167 8.70542 19.5667 8.72207 19.7584 8.772C20.025 8.83858 20.1334 8.83026 20.3167 8.73871C20.5667 8.59723 21.1084 7.9231 21.0417 7.82322C21.025 7.78993 20.7834 7.74 20.5084 7.70671C19.925 7.64013 19.575 7.77329 19.3834 8.13116C19.275 8.34755 19.2667 8.33923 19.175 7.73168C19.0084 6.69967 18.8584 6.30019 18.3667 5.5678C17.7834 4.68561 17.425 3.99483 17.3334 3.54541L17.2667 3.20418L17.2584 3.67857C17.25 4.26948 17.4084 4.68561 17.9417 5.47625C18.475 6.28354 18.6667 6.708 18.6667 7.13245C18.6667 7.33219 18.6417 7.49032 18.6167 7.49032C18.5917 7.49032 18.4084 7.34884 18.2084 7.17406C18.0167 7.00761 17.4334 6.64142 16.9167 6.36677C16.4 6.09213 15.775 5.68432 15.525 5.45961C15.2834 5.24322 15.0834 5.09341 15.0834 5.13503C15.0834 5.34309 15.7917 5.99225 16.6584 6.56651C18.2667 7.64845 19.0084 8.59723 19.3 9.9871C19.4084 10.4865 19.425 10.8776 19.3834 11.9013C19.3334 13.0248 19.2084 14.2067 19.175 13.7988C19.1667 13.6241 18.8834 13.4243 18.5 13.3161L18.2334 13.2412L18.2917 13.5492C18.3834 14.0735 18.7917 14.3648 19.0667 14.1151C19.2 13.9986 19.2167 14.0568 19.225 14.9973C19.2334 15.7463 19.2167 15.9794 19.1417 15.9045C19.025 15.7879 18.625 15.7879 18.4 15.9045C18.2167 16.0043 17.925 16.5952 17.9167 16.8782C17.9167 17.028 17.95 17.0613 18.0667 17.028C18.1417 17.003 18.3584 16.9448 18.55 16.9032C18.9167 16.8033 19.1167 16.6369 19.2334 16.3123C19.3 16.1292 19.3167 16.1541 19.3667 16.5203C19.4167 16.8366 20.1917 19.9576 20.55 21.2809C20.6 21.464 20.6 21.464 20.1167 21.3391C19.0084 21.0478 17.8 20.1989 17.3834 19.4332C17.2334 19.142 17.2084 18.9755 17.2167 18.1432C17.225 17.2777 17.2584 17.0863 17.5417 16.1874C18.075 14.473 18.0334 12.7752 17.425 11.5268C17.125 10.9109 16.9917 10.7861 16.0834 10.2368L15.375 9.804L16.225 10.6696C17.15 11.61 17.5 12.1926 17.5667 12.9083L17.6 13.2912L16.6834 12.9749C15.5417 12.5837 15.325 12.4756 15.05 12.1427C14.55 11.5517 14.4 11.0774 14.2 9.46278C14.1334 8.91348 14 8.23935 13.9084 7.95639C13.7417 7.46535 13.1584 6.30019 13.1084 6.35845C13.0917 6.37509 13.1917 6.62477 13.3334 6.91606C13.6167 7.52361 13.7834 8.24768 13.9084 9.48774C14 10.4532 14.2834 11.3936 14.6667 12.0012C14.8 12.2259 14.8834 12.4007 14.8584 12.4007C14.75 12.4007 13.8917 11.8847 12.775 11.1439C11.7334 10.4532 10.925 9.9871 10.7834 9.9871C10.75 9.9871 11.0084 10.1702 11.3417 10.3866C11.6834 10.6113 12.5 11.2022 13.1667 11.7016C14.6917 12.8584 15.1 13.0831 16.1167 13.3661C17.6667 13.7988 17.7417 14.0485 17 16.2707C16.75 17.0197 16.525 17.6356 16.5 17.6356C16.475 17.6356 16.3084 17.3942 16.125 17.0946C15.6834 16.3705 15.4 16.1292 14.1667 15.4051C13.5917 15.0639 12.95 14.6644 12.725 14.5146C12.5084 14.3565 12.3084 14.2316 12.2834 14.2316C12.2584 14.2316 12.3084 14.3481 12.3917 14.4896C12.5917 14.8392 13.125 15.2553 14.0667 15.8129C14.825 16.254 15.5 16.7617 15.5 16.8865C15.5 16.9281 15.3 16.9032 15.0667 16.8366C14.825 16.77 14.025 16.6868 13.2917 16.6535C12.5584 16.6202 11.875 16.5453 11.7834 16.4954C11.6834 16.4454 11.5 16.2873 11.3834 16.1375C11.2667 15.996 11.1667 15.9211 11.1667 15.9794C11.1667 16.1541 11.5 16.7284 11.6667 16.8283C11.8167 16.9281 11.8084 16.9365 11.575 17.0363C11.325 17.1445 11.0084 17.6772 11 18.0184C10.9917 18.1599 10.9417 18.1266 10.7 17.8603C10.0667 17.1362 9.81669 16.3206 9.63335 14.3814C9.40835 12.0761 9.05002 11.0607 8.30835 10.6862C8.15835 10.6113 7.95002 10.4365 7.83335 10.3034C7.53335 9.95381 7.12502 9.96213 6.57502 10.3283C6.35002 10.4865 6.16669 10.6363 6.16669 10.6612C6.16669 10.7694 6.95835 11.0857 7.23335 11.094C7.45835 11.1023 7.57502 11.0441 7.75835 10.836L8.00002 10.5697L8.30002 10.8443C8.66669 11.1606 8.92502 11.7016 9.11669 12.5505C9.28335 13.2995 9.41669 14.989 9.35002 15.4218L9.29169 15.7463L8.75002 14.9807C7.88335 13.7406 7.18335 13.1164 6.20835 12.6919C5.65002 12.4423 5.66669 12.4756 6.34169 12.925C7.22502 13.5159 8.39169 14.8059 9.23335 16.1541C9.42502 16.4538 9.58335 16.7284 9.58335 16.7617C9.58335 16.795 9.44169 16.7118 9.27502 16.5786C8.42502 15.9128 7.58335 16.0127 5.29169 17.0613C4.79169 17.286 4.40835 17.4774 4.45002 17.4774C4.49169 17.4774 5.05835 17.3027 5.70002 17.0946C7.24169 16.5869 8.08335 16.5203 8.76669 16.8283C9.10835 16.9864 9.35835 17.1945 9.75002 17.6522C10.0334 17.9934 10.4 18.368 10.5584 18.4928C10.725 18.6176 10.8667 18.7341 10.8834 18.7425C10.8917 18.7591 10.5334 18.7508 10.0834 18.7425C9.44169 18.7175 9.00002 18.7591 8.09169 18.9339C7.44169 19.0587 6.91669 19.1752 6.91669 19.2002C6.91669 19.2169 7.23335 19.2085 7.62502 19.1752L8.33335 19.117L7.99169 19.4665L7.64169 19.8161L7.69169 20.5651C7.71669 20.9812 7.75835 21.3391 7.78335 21.3641C7.85002 21.4307 8.90002 20.6067 9.03335 20.3737C9.22502 20.0574 9.20835 19.5165 9.00002 19.3084C8.90835 19.2169 8.83335 19.117 8.83335 19.092C8.83335 19.0587 9.33335 19.0587 9.94169 19.0837C11.4334 19.1503 12.0084 19.3167 13.1334 20.0325C13.475 20.2405 13.7417 20.432 13.725 20.4486C13.7084 20.4569 13.5667 20.432 13.4084 20.3903C12.975 20.2655 11.7917 20.2905 11.225 20.4403C10.2667 20.6816 9.11669 21.439 8.81669 22.0132C8.75002 22.1298 8.80002 22.1048 8.96669 21.9383C9.33335 21.5805 9.73335 21.3391 10.3584 21.0978C10.6667 20.9812 10.95 20.8897 10.9917 20.8897C11.0334 20.8897 10.9167 21.0312 10.7417 21.2143C10.4167 21.5305 10.4167 21.5472 10.425 22.1464C10.4334 22.4876 10.4584 22.8455 10.4834 22.9537C10.5417 23.1368 10.5417 23.1368 10.9667 22.8538C11.6084 22.4211 11.9167 22.0299 11.9167 21.6471C11.9167 21.2476 11.6584 20.8897 11.35 20.8814C11.1667 20.8731 11.1917 20.8564 11.4584 20.7898C11.6417 20.7482 12.1334 20.7232 12.5417 20.7399C13.15 20.7732 13.3667 20.8148 13.7084 20.9979L14.125 21.2143L13.7334 21.2226C13.2 21.2226 12.8417 21.5389 12.55 22.2712C12.425 22.5792 12.3334 22.8372 12.35 22.8455C12.425 22.9121 13.625 22.7123 13.875 22.5875C14.2334 22.4211 14.4417 22.0549 14.4 21.672C14.375 21.4473 14.3917 21.414 14.5 21.4723C14.7834 21.6304 15.425 22.3878 15.8334 23.0536C16.075 23.4447 16.3834 23.9025 16.5167 24.0689C16.65 24.2437 16.725 24.3852 16.6834 24.3852C16.6417 24.3852 16.2167 24.2687 15.7417 24.1272C13.9917 23.6112 13.525 23.5363 11.25 23.4697C8.53335 23.3865 8.30002 23.3199 6.90835 22.2962C6.52502 22.0132 5.75002 21.3225 5.18335 20.7732C4.21669 19.8244 3.53335 19.3084 3.25002 19.3167C3.18335 19.3167 3.27502 19.3916 3.45835 19.4915C3.82502 19.6829 4.55835 20.407 4.96669 20.9812L5.23335 21.3474L4.85835 21.3142C4.53335 21.2892 4.46669 21.3225 4.22502 21.5722C4.07502 21.7303 3.89169 22.0216 3.81669 22.2047L3.68335 22.5542H4.13335C4.91669 22.5542 5.50835 22.1547 5.39169 21.7136C5.35835 21.5805 5.47502 21.6637 5.79169 21.98L6.24169 22.4294L5.92502 22.4793C5.50002 22.5376 5.36669 22.6541 5.06669 23.245L4.82502 23.736L5.45835 23.7027C6.06669 23.6778 6.11669 23.6611 6.35002 23.3948C6.55002 23.1701 6.59169 23.0619 6.55002 22.8705L6.50002 22.6291L6.85835 22.8455C7.05002 22.9703 7.55835 23.2367 7.99169 23.4531L8.76669 23.8359L8.45002 23.9524C8.26669 24.0107 7.56669 24.2104 6.87502 24.3935C6.19169 24.5766 5.31669 24.8679 4.95002 25.0427L4.27502 25.3673L4.39169 25.1176C4.64169 24.6265 4.34169 23.994 3.70835 23.6528C3.45835 23.5196 1.66669 23.3865 1.66669 23.503C1.66669 23.5363 1.77502 23.786 1.90835 24.0773C2.42502 25.2091 2.90835 25.6003 3.68335 25.5337C4.03335 25.5004 4.06669 25.5087 3.98335 25.6169C3.92502 25.6835 4.08335 25.6253 4.33335 25.4838C4.91669 25.1592 6.32502 24.6848 7.34169 24.4767C9.25002 24.0856 11.6334 23.8858 12.9334 24.0023C13.575 24.0689 13.5834 24.0689 13.4584 24.2437C13.3167 24.4518 13.2917 24.7181 13.425 24.7181C13.6334 24.7181 13.8334 24.535 13.8334 24.3436C13.8334 24.2271 13.8667 24.1355 13.9084 24.1355C14.1917 24.1355 15.7417 24.6182 16.3 24.8845C17.2 25.3007 17.6 25.5836 18.475 26.4159C18.8834 26.7904 19.525 27.3397 19.9167 27.631C21.3 28.6796 21.8584 29.4037 21.9584 30.3275C21.9917 30.6105 22.05 30.9267 22.0917 31.0266C22.1334 31.1348 21.5 30.5855 20.6917 29.8115C19.0917 28.2885 18.2167 27.5311 17.5084 27.0567C17.1584 26.832 17.0917 26.7488 17.2167 26.7322C17.6167 26.6573 17.7 26.1163 17.3667 25.7251C17.25 25.5836 17.1167 25.4671 17.0834 25.4671C16.9584 25.4671 16.8167 26.058 16.8584 26.3493L16.9084 26.624L16.2167 26.2494C14.2834 25.2091 11.7917 24.7597 9.75002 25.0843C8.83335 25.2258 7.41669 25.5836 8.05002 25.5087C9.08335 25.3839 10.125 25.3673 10.9167 25.4671C11.4 25.5171 11.8334 25.592 11.8917 25.6253C12.0084 25.6835 10.3917 26.3327 9.90835 26.4159C9.61669 26.4658 9.60835 26.4575 9.65002 26.2578C9.70835 25.9165 9.46669 25.7168 8.98335 25.7168H8.58335L8.72502 25.9415C8.80002 26.0747 8.93335 26.2494 9.01669 26.3493L9.17502 26.5241L8.50835 26.574C7.02502 26.6739 6.02502 27.5311 5.62502 29.0542C5.47502 29.6201 5.46669 30.7853 5.61669 31.3346C5.72502 31.7507 6.05002 32.5413 6.10835 32.5413C6.12502 32.5413 6.04169 32.2667 5.93335 31.9338C5.50002 30.6604 5.62502 29.0875 6.22502 28.2136C6.60002 27.6809 7.22502 27.1816 7.75002 27.0068C7.95835 26.9402 8.55835 26.8487 9.08335 26.8071C9.60835 26.7655 10.1167 26.6989 10.2084 26.6656C10.3667 26.599 10.3667 26.6073 10.2334 26.7987C9.72502 27.5145 9.25002 28.5798 9.25002 28.9876C9.25835 29.0875 9.31669 28.9876 9.40002 28.7546C9.56669 28.2802 9.92502 27.631 10.1167 27.4729C10.2167 27.3896 10.2334 27.398 10.1917 27.5311C10.1334 27.7642 10.3334 28.1803 10.9584 29.1207C11.2917 29.6284 11.5334 30.0945 11.575 30.3109L11.65 30.6687L11.6584 30.3691C11.6667 30.2027 11.5834 29.9114 11.475 29.7033C11.3667 29.5036 11.1167 29.0458 10.9334 28.688C10.55 27.9722 10.4834 27.4812 10.7084 27.0567C11.0334 26.4242 11.875 26.083 12.9167 26.1579C13.5417 26.2078 14.375 26.4409 14.9084 26.7072L15.1834 26.857L14.775 27.1483C14.0584 27.6643 13.6 28.3301 12.725 30.1527C12.1334 31.3928 11.6834 32.0669 10.8834 32.9158L10.2584 33.5817L10.3 33.2071C10.3417 32.8992 10.3167 32.8077 10.1834 32.6828C9.94169 32.4664 9.71669 32.533 9.68335 32.8243C9.65835 32.9991 9.72502 33.1322 9.93335 33.3486L10.2084 33.6316L9.87502 33.9146C8.85835 34.7968 7.91669 35.2295 7.04169 35.2379H6.45835L6.79169 35.3377C8.03335 35.7122 9.34169 35.138 10.9667 33.4901C12.0584 32.3915 12.4667 31.8173 13.1667 30.3608L13.7417 29.1707L13.75 29.5868C13.7584 30.3608 14.0667 30.8602 15.625 32.6079C17 34.1476 17.3 34.7968 16.95 35.4709L16.8084 35.7372L17.0417 35.5874C17.2667 35.4376 17.275 35.4376 17.2084 35.5874C17.1667 35.6789 17.125 35.9369 17.1 36.17C17.075 36.5528 17.1 36.6277 17.3167 36.8774C17.45 37.0355 17.7334 37.2852 17.9417 37.4267L18.3167 37.7013L18.4167 37.1104C18.5584 36.2782 18.4917 35.887 18.1584 35.5957C17.9584 35.4126 17.8334 35.3627 17.625 35.3877L17.35 35.4209L17.4667 35.1879C17.7917 34.5554 17.4917 33.9728 15.875 32.1668C14.4834 30.6105 14.225 30.186 14.2334 29.462C14.2334 28.8877 14.5084 28.147 14.825 27.8474C15.3667 27.3231 16.2 27.5478 17.4334 28.5382C18.5334 29.4204 20.1667 31.3429 20.9084 32.6162C21.9084 34.339 22.3167 36.4363 22.0917 38.7001C21.9667 39.9484 21.3584 43.5688 20.875 45.974C20.55 47.5803 20.5084 47.8965 20.6 47.9964C20.825 48.2128 21.8584 48.3543 23.5834 48.4042L25.2917 48.4541L26.625 48.1628C27.3584 48.0047 28.0667 47.8299 28.2 47.78L28.4417 47.6801L28.3834 47.1225C28.275 46.0239 27.8167 44.0348 27.2084 41.9875C26.875 40.839 26.5334 39.6738 26.4667 39.3991C25.5334 35.7372 26.025 32.3666 27.8167 30.1195C28.2334 29.5951 29.1084 28.7962 29.275 28.7962C29.3 28.7962 29.2667 28.9127 29.1917 29.0458C29.0417 29.3621 29.1084 29.7116 29.3917 30.0529C29.6417 30.3442 29.9167 30.494 30.6834 30.7603L31.25 30.9517V30.727C31.25 30.3858 31.0167 29.4703 30.8584 29.2123C30.6917 28.921 30.35 28.7213 29.9 28.638L29.5417 28.5715L30.125 28.38C30.825 28.1553 32.4917 28.0555 33.0667 28.2053C33.4334 28.3051 34.0084 28.7379 33.9917 28.9127C33.9917 28.9709 33.975 28.9626 33.9417 28.896C33.875 28.7213 33.4417 28.5465 33.0834 28.5465C32.7917 28.5465 32.6834 28.6047 32.35 28.9127C32.1334 29.1124 31.8917 29.3954 31.8167 29.5286C31.675 29.7616 31.675 29.7782 31.8167 29.8365C31.8917 29.8615 32.275 29.9114 32.6667 29.9364C33.3417 29.978 33.3917 29.9696 33.625 29.7782C33.7584 29.6617 33.9167 29.437 33.975 29.2872C34.0834 29.0126 34.0834 29.0126 34.0417 29.462C34.0167 29.7699 33.8917 30.1444 33.625 30.6687C33.3917 31.1431 33.25 31.526 33.25 31.7091V32.0004L33.4167 31.6425C33.5 31.4511 33.775 31.01 34.0084 30.6687C34.375 30.1444 34.45 29.978 34.4834 29.5868C34.5084 29.2955 34.5584 29.1291 34.625 29.1291C34.8084 29.1291 35.375 29.7449 35.5667 30.1527C35.8417 30.7353 35.9417 31.3346 35.8917 32.0836C35.8417 32.8576 35.6167 33.5068 35.2334 33.9895C35.0834 34.1809 35.0417 34.2724 35.125 34.2058C35.6334 33.8147 35.9667 33.1406 36.1 32.2417C36.275 31.01 35.8584 29.72 35.0084 28.8794C34.4334 28.3135 33.7417 27.9389 32.7834 27.6893L32.0417 27.4895L32.525 27.348C32.7917 27.2731 33.35 27.0567 33.7667 26.882C34.1834 26.6989 34.5417 26.5491 34.5584 26.5491C34.575 26.5491 34.55 26.624 34.5 26.7072C34.375 26.9569 34.4 27.3647 34.5667 27.6476C34.8084 28.0555 35.1167 28.1969 36.45 28.4966C36.6834 28.5548 36.6834 28.5548 36.625 28.2385C36.525 27.6976 36.2584 27.0318 36.0667 26.8154C35.8417 26.574 35.425 26.3826 35.1084 26.3826C34.925 26.3826 35.0917 26.2578 35.8334 25.8416C37.725 24.7764 38.525 24.7347 39.0584 25.6835C39.4417 26.366 39.5084 27.914 39.2 28.9626C39.125 29.2123 38.775 30.0529 38.4167 30.8352C37.6667 32.4581 37.4584 33.0324 37.3334 33.8313C37.2 34.6719 37.3584 35.4792 37.7917 36.1367C37.9084 36.3198 37.9667 36.4696 37.9167 36.4946C37.7667 36.5861 37.825 37.1687 38 37.3934C38.15 37.5765 39.0584 38.0093 39.1334 37.926C39.15 37.9177 39.1084 37.6431 39.0417 37.3268C38.9084 36.686 38.6584 36.3697 38.2917 36.3697C38.1167 36.3697 38.0667 36.3031 37.9584 35.9369C37.6917 35.0215 37.575 34.1809 37.6667 33.7231C37.775 33.1406 38.1584 32.2001 38.6084 31.4011C39.525 29.7949 39.825 28.9709 39.8334 28.0887V27.7558L40.0917 28.2136C40.4334 28.8461 40.8167 29.2123 41.5667 29.6284C43.7667 30.8602 44.3167 31.4261 44.4 32.5497C44.4417 33.1073 44.3167 33.5234 44.0167 33.8896C43.8084 34.1309 43.8084 34.1393 43.9834 34.0477C44.2084 33.9229 44.65 33.332 44.725 33.0573L44.775 32.8659L45.0084 33.0906C45.2167 33.2904 45.2834 33.307 45.6167 33.2571C45.825 33.2238 46.025 33.1572 46.05 33.1073C46.15 32.9575 45.5334 32.4581 45.2584 32.4581C45.1167 32.4581 44.9834 32.4997 44.9584 32.5413C44.875 32.6745 44.75 32.5497 44.75 32.3499C44.75 31.992 44.35 31.3346 43.8667 30.8685C43.6 30.6188 42.825 30.0446 42.1584 29.6035C40.8667 28.7629 40.5917 28.4882 40.1667 27.6976C39.8584 27.1233 39.7417 26.7738 39.825 26.6489C39.8584 26.599 40.3167 26.5158 40.85 26.4658C41.9584 26.3576 41.9334 26.366 43.35 25.85C44.3417 25.4921 44.8834 25.3589 44.5917 25.542C44.4584 25.6253 44.45 26.0913 44.575 26.2494C44.6834 26.3826 45.3167 26.6739 45.375 26.6156C45.475 26.5158 45.25 25.7501 45.0834 25.6169C44.9 25.4671 44.9 25.4671 45.0667 25.4671C45.1584 25.4671 45.3417 25.5087 45.475 25.5504L45.7084 25.6336L45.5 25.4754C45.1917 25.2258 44.6084 25.1259 44.0334 25.2174C43.7584 25.2591 42.9834 25.4921 42.3 25.7251C40.4917 26.3493 40.1584 26.2827 39.45 25.2174C39.2334 24.8929 38.95 24.5683 38.8167 24.5017C38.6834 24.4268 38.5834 24.3602 38.6 24.3436C38.6084 24.3353 39.0084 24.1272 39.4834 23.8942L40.3417 23.4614L40.2084 23.7277C39.9667 24.1938 40.2167 24.818 40.7584 25.0926C40.9917 25.2174 42.3417 25.567 42.3917 25.5171C42.4417 25.4671 42.025 24.1438 41.8917 23.9358C41.6917 23.6362 41.4 23.4614 40.9917 23.4114C40.725 23.3698 40.675 23.3449 40.7834 23.2866C41.075 23.1202 42.15 22.7873 42.7084 22.6791L43.2917 22.5709L42.7084 22.5625C42.1667 22.5542 42.1417 22.5459 42.3084 22.4294C42.5834 22.238 42.6917 21.8218 42.5834 21.3391C42.4417 20.6733 42.45 20.6816 42.075 20.9812C41.425 21.4889 41.2417 22.0549 41.6084 22.4211L41.7917 22.6042L41.1167 22.7789C40.7417 22.8788 40.0334 23.1451 39.55 23.3782C38.6834 23.786 38.6667 23.786 38.8334 23.5529C38.9417 23.3948 39 23.1867 39 22.9121C39 22.4627 38.7834 21.6387 38.675 21.6387C38.5167 21.6387 37.6084 22.7123 37.5584 22.9454C37.4667 23.4281 37.7584 23.9691 38.1167 23.9691C38.3834 23.9691 38.2167 24.0773 37 24.7014C35.75 25.334 34.7584 25.6918 33.375 26.0081C32.1667 26.2827 32.125 26.2827 32.425 25.9582C32.5584 25.8167 32.85 25.3173 33.075 24.8429C33.6917 23.5529 34.0667 23.2533 36.0667 22.4377C37.55 21.8385 38.1584 21.3807 38.5084 20.5984C38.7084 20.1656 38.725 19.8161 38.525 20.2072C38.3417 20.5818 37.725 21.181 37.15 21.5222C36.75 21.7719 35 22.5542 34.8584 22.5542C34.825 22.5542 34.8667 22.4876 34.9417 22.4044C35.2584 22.0549 35.1584 21.5222 34.675 20.898L34.525 20.6983L34.25 21.2476C33.9334 21.8884 33.9584 22.1963 34.3417 22.496L34.5917 22.6957L34.1 22.9121C33.5334 23.1701 33.475 23.1784 33.3417 23.0203C33.225 22.8788 33.575 20.9979 33.8334 20.407L34 20.0158L33.7917 20.2655C33.325 20.8231 33.0417 21.7303 32.9167 23.0619C32.8167 24.0773 32.7167 24.4767 32.4417 24.9594C32.2 25.3673 31.6334 26.0164 31.4084 26.1413C31.2667 26.2162 31.2667 26.1995 31.3917 25.9082C31.575 25.4505 31.4917 24.9844 31.0917 24.2853C30.9 23.9524 30.6834 23.6029 30.6167 23.5113C30.4917 23.3449 30.4917 23.3449 30.325 23.5529C30.2417 23.6694 30.0334 24.019 29.875 24.3353C29.4167 25.2341 29.5167 25.9998 30.15 26.4325L30.4084 26.6073L29.4417 26.9236C28.2167 27.3147 27.4084 27.6976 26.6167 28.2635C26.275 28.5132 26.0167 28.663 26.05 28.6047C26.0917 28.5548 26.6917 27.7475 27.3917 26.8154C29.3917 24.1605 29.525 23.9524 30.1417 22.2629C30.6834 20.7898 30.975 20.2489 31.5417 19.6746C32.6667 18.5344 34.5167 18.0683 37.5 18.1849C39.6667 18.2681 39.4834 18.2098 40.6667 19.092C42.4834 20.432 43.4084 20.8897 44.325 20.8897H44.7167L44.6834 21.181C44.6584 21.3891 44.6917 21.5305 44.7917 21.6387C44.9417 21.8052 45.475 22.0216 45.5584 21.9467C45.65 21.8468 45.4667 21.181 45.2917 21.0062L45.1084 20.8231L45.9334 20.5568C46.3917 20.4153 46.75 20.2821 46.7334 20.2655C46.725 20.2572 46.35 20.3321 45.9167 20.4486C45.275 20.6151 44.9667 20.6483 44.325 20.6234C43.5667 20.5984 43.4917 20.5734 43.0334 20.2905C42.7667 20.124 42.5334 19.9576 42.5167 19.9076C42.5084 19.866 42.6167 19.8078 42.7667 19.7745C43.15 19.6996 43.9917 19.2918 44.3167 19.0171C44.4667 18.8923 44.7334 18.576 44.9084 18.318C45.0917 18.06 45.2917 17.7937 45.3667 17.7354C45.5167 17.6106 45.5417 17.1778 45.4084 16.8366L45.325 16.6036L45.075 16.8782C44.7834 17.1945 44.75 17.5773 45 17.7521C45.1584 17.8603 45.15 17.8769 44.85 18.1599C44.6834 18.318 44.3917 18.5594 44.2167 18.6925C43.9334 18.8923 43.8917 18.9089 43.95 18.7674C44.125 18.3513 44.0834 17.7687 43.8167 17.0696C43.7417 16.8699 43.7417 16.8699 43.2834 17.3193C42.7417 17.8436 42.5834 18.11 42.5834 18.5011C42.5834 18.8174 42.85 19.2252 43.0667 19.2252C43.1917 19.2335 43.1834 19.2501 43.0417 19.3583C42.925 19.4499 42.75 19.4749 42.4417 19.4582C41.9917 19.4166 41.8417 19.3334 40.975 18.6426L40.5084 18.2764L40.9917 18.1765C42.05 17.9601 42.525 17.5274 43.2084 16.1458L43.6834 15.197L43.8417 15.4883C44.0917 15.9794 44.6417 16.0959 45.3834 15.8129L45.6084 15.7214L45.2834 15.3885C44.8584 14.9474 44.5417 14.7892 44.225 14.8475C44.0167 14.8891 43.9917 14.8808 44.0834 14.7726C44.1417 14.706 44.1667 14.6478 44.1334 14.6478C44.1084 14.6478 44.1667 14.4979 44.2584 14.3148C44.6417 13.5908 44.5334 13.0082 43.925 12.5088L43.6084 12.2425L43.3334 12.7585C43.1167 13.1747 43.075 13.3328 43.1084 13.6324C43.15 14.0319 43.4417 14.3981 43.8417 14.5728L44.0834 14.6727L43.725 15.0556C43.525 15.2636 43.2167 15.6631 43.025 15.9378C42.2417 17.0863 41.575 17.6023 40.7584 17.7021C40.525 17.7271 39.6834 17.6855 38.8834 17.6023L37.425 17.4525L37.825 17.0114C38.0417 16.7617 38.5167 16.0543 38.875 15.4301C39.5167 14.3148 39.525 14.2982 39.6417 14.5063C39.7084 14.6394 39.875 14.7643 40.0667 14.8225C40.35 14.9058 40.4334 14.8891 40.7167 14.7393C40.8917 14.6478 41.1334 14.4979 41.25 14.3981C41.425 14.2566 41.4417 14.2233 41.3334 14.1484C41.0417 13.957 40.2917 13.7239 40.1 13.7739C39.9 13.8238 39.9 13.8238 40.15 13.5076C40.5834 12.9666 41.4417 12.1759 41.3834 12.3674C41.35 12.4839 41.3917 12.617 41.5084 12.7752C41.6834 12.9832 41.725 12.9999 42.1084 12.9499C42.3417 12.925 42.5584 12.875 42.6 12.8334C42.6417 12.7918 42.525 12.6254 42.325 12.4506C42.0584 12.2009 41.925 12.1427 41.75 12.1676C41.5334 12.2009 41.575 12.1343 42.15 11.5767C42.6917 11.0357 42.8084 10.9608 42.8917 11.069C43.2084 11.4685 43.2834 11.5018 43.6917 11.4519C44.275 11.3853 44.3 11.3354 43.9584 10.9858C43.5834 10.603 43.3084 10.5114 43.0417 10.6862C42.85 10.811 42.85 10.811 42.9417 10.5447C42.9834 10.3949 43.0334 10.2368 43.05 10.1785C43.0667 10.1119 43.1584 10.1036 43.4 10.1702C43.8 10.2701 44.3167 10.1452 44.625 9.87891C44.7417 9.77903 44.9084 9.50439 44.9917 9.27136L45.1417 8.83858L44.8417 8.78865C44.675 8.76368 44.3584 8.73871 44.1334 8.73871C43.7917 8.73871 43.6917 8.78032 43.4584 9.01336C43.2917 9.17981 43.1584 9.41284 43.125 9.59594C43.0917 9.76239 43.0334 9.87891 42.9917 9.85394C42.95 9.82897 42.9167 9.90387 42.9167 10.0121C42.9167 10.2534 42.5334 10.836 42.0917 11.2771C41.7334 11.6183 41.6917 11.6017 41.8417 11.1689C41.9584 10.836 41.75 10.345 41.2667 9.82065C40.8667 9.37955 40.8417 9.3962 40.575 10.2617C40.3667 10.9192 40.4084 11.3187 40.7084 11.6183C40.8167 11.7265 41.0084 11.8181 41.125 11.8181C41.2417 11.8181 41.3334 11.8264 41.3334 11.843C41.3334 11.8514 40.9917 12.2092 40.575 12.6337C40.1584 13.0581 39.8417 13.3328 39.875 13.2579C39.9 13.1747 39.9584 12.8417 39.9917 12.5255C40.1084 11.5018 39.9 10.2617 39.4667 9.37123C39.2667 8.96342 39.2417 8.85523 39.35 8.91348C39.6084 9.05497 40.1334 8.99671 40.4167 8.79697C40.8667 8.49735 41.025 8.08955 41.0667 7.10748C41.0917 6.50825 41.075 6.24193 41.0167 6.24193C40.85 6.24193 40.0167 6.64142 39.6417 6.89942C39.4334 7.03258 39.2084 7.28226 39.1334 7.44039C38.9834 7.76497 38.9584 8.3309 39.0834 8.59723C39.1334 8.6971 39.025 8.61387 38.8334 8.40581L38.4917 8.03129L38.8 8.6971C39.9167 11.119 39.9084 12.3674 38.7667 14.706L38.4417 15.3885L38.4 14.8641C38.3417 14.215 38.0917 13.7156 37.5834 13.2246C37.2334 12.8917 36.3 12.3174 36.1167 12.3174C36.0834 12.3174 36.2667 12.4672 36.5167 12.6503C37.3417 13.2329 37.9917 14.3398 38.0167 15.1638C38.0334 15.7879 37.8834 16.1625 37.4584 16.5453C36.9584 17.0114 36.2417 17.2278 34.9667 17.286L33.975 17.336L34.2834 17.053C34.6584 16.7118 34.7834 16.2623 34.6584 15.7713C34.55 15.3385 33.9917 14.1484 33.9 14.1484C33.7667 14.1484 33 15.2803 32.8667 15.6798C32.75 16.0127 32.75 16.1375 32.825 16.4038C32.9417 16.7783 33.375 17.311 33.575 17.3193C33.65 17.3193 33.4417 17.3942 33.1084 17.4774C32.7834 17.5607 32.3917 17.6938 32.25 17.7687C31.9417 17.9269 31.8667 17.8936 31.9917 17.6605C32.2167 17.2361 31.9334 16.3206 31.4334 15.8712C31.2667 15.7214 31.2584 15.7214 30.9667 16.3372C30.8 16.6785 30.6667 17.078 30.6667 17.2361C30.6667 17.6023 30.9334 18.0434 31.2 18.11C31.3917 18.1516 31.3667 18.1932 30.7084 18.8423C29.9667 19.5747 29.9834 19.5498 28.5084 22.6791C28.075 23.5862 28.0584 23.6112 26.8417 24.8013C26.1584 25.4671 25.525 26.1579 25.425 26.341C25.2667 26.6406 25.2584 26.6489 25.3 26.4242C25.4417 25.7501 26.0167 24.8679 27.2084 23.503C28.4167 22.1131 28.8167 21.2559 29.175 19.2335C29.4334 17.8187 29.775 17.003 30.45 16.2207C30.5917 16.0543 31.2 15.4967 31.7917 14.9807C34.0834 12.9999 35.375 11.5434 36.075 10.1785C36.35 9.62091 36.2834 9.67084 35.8334 10.3533C35.45 10.9109 34.3584 12.0345 34.275 11.9512C34.25 11.9346 34.2917 11.7515 34.3584 11.5517C34.725 10.4948 34.8084 8.33923 34.525 7.39045L34.3584 6.83284L34.5334 6.94935C34.7834 7.12413 35.1 7.09916 35.425 6.88277C35.8 6.63309 35.9417 6.31684 35.9834 5.62606C36.025 4.9769 36.0584 4.99354 35.2084 5.36806C34.7084 5.59277 34.4167 5.88406 34.3417 6.25858L34.275 6.53322L34.175 6.20032C34.0334 5.7509 33.9667 4.76051 34.0417 4.26948L34.1 3.86999L34.2584 4.21954C34.425 4.60238 34.7834 4.87703 35.2334 4.96025C35.5334 5.01851 36 4.88535 36.875 4.48586L37.4584 4.22786L37.1667 3.97819C36.7 3.5787 36.0584 3.18754 35.725 3.09599C35.3334 2.9878 34.75 3.1376 34.4417 3.42889L34.2334 3.62031L34.2917 3.41225C34.325 3.29573 34.4084 3.08767 34.4834 2.95451C34.5917 2.7298 34.5917 2.71315 34.4834 2.81302C34.4084 2.87128 34.2084 3.19586 34.0334 3.54541C33.7917 4.02812 33.7084 4.29444 33.6834 4.70225L33.65 5.2349L33.1167 4.70225C32.775 4.36935 32.3834 4.06973 32.025 3.89496C31.5167 3.64528 31.4 3.62031 30.75 3.62864C30.3084 3.63696 29.9167 3.6869 29.7084 3.77012L29.375 3.91161L29.7 3.85335L30.025 3.80341L29.8417 3.98651C29.7167 4.11135 29.6667 4.26115 29.6667 4.52748C29.6667 4.73554 29.7 4.91864 29.7334 4.94361C29.775 4.96857 29.9417 4.8687 30.1084 4.73554C30.475 4.43593 30.525 4.07806 30.2334 3.87831C30.0584 3.75348 30.0667 3.74515 30.5084 3.74515C31.1667 3.74515 31.7584 3.9449 32.2417 4.32774C32.7417 4.7189 32.8 4.90199 32.3584 4.66064C31.9084 4.41928 31.55 4.37767 31.1 4.50251C30.5917 4.63567 29.6667 5.55116 28.925 6.65806C28.4084 7.43206 28.4084 7.44039 28.75 7.1158C28.9417 6.93271 29.2584 6.54987 29.4584 6.27522C29.8 5.80083 30.525 5.07677 30.6667 5.07677C30.6917 5.07677 30.7667 5.3098 30.8167 5.59277C30.95 6.32516 31.3167 6.64142 31.7584 6.40838C31.875 6.3418 31.9167 6.23361 31.9167 6.00058C31.9167 5.74258 31.8667 5.63438 31.6667 5.46793C31.5334 5.35141 31.3084 5.2349 31.1667 5.20161C30.7834 5.11838 30.7917 5.01019 31.1834 4.90199C31.9084 4.71057 32.6417 4.96025 33.2417 5.61774C33.5834 5.98393 34.1 6.94935 34.2 7.42374L34.25 7.64845L34.05 7.44871C33.8167 7.21568 33.625 7.19903 33.125 7.33219L32.8 7.42374L33.1834 7.78993C33.6084 8.18942 33.8334 8.23935 34.075 7.998C34.1667 7.90645 34.2584 7.85652 34.2834 7.88981C34.35 7.94806 34.35 8.42245 34.2834 9.06329L34.225 9.57929L34.075 9.32961C33.8334 8.93845 32.9 8.52232 33.0334 8.87187C33.0584 8.94678 33.0834 9.14652 33.0834 9.32129C33.0834 9.92052 33.725 10.3866 34.075 10.0454C34.1667 9.96213 34.175 9.97878 34.1417 10.1119C34.1167 10.2035 34.075 10.4116 34.0417 10.5697C34.0167 10.7278 33.8917 11.1606 33.7667 11.5268L33.55 12.1926L33.4667 11.893C33.3417 11.4685 33.1334 11.2688 32.6084 11.069C32.3667 10.9775 32.1417 10.9026 32.125 10.9026C32.0584 10.9026 32.1917 11.7765 32.2917 12.0428C32.4417 12.3923 32.7667 12.6004 33.0834 12.5338C33.3084 12.4922 33.325 12.5088 33.2584 12.6337C33.0834 12.9416 32.5917 13.4077 31.75 14.0735C29.3084 16.0043 28.6417 16.9531 28.2834 19.0504C28.0834 20.1989 27.9334 20.7815 27.925 20.432C27.9167 20.1906 27.6667 19.8161 27.1 19.2169C26.5167 18.5843 26.3417 18.2764 26.275 17.7354C26.2167 17.2361 26.3917 16.6119 26.8917 15.5383L27.275 14.731L27.425 14.9807C27.6167 15.2803 27.8667 15.3552 28.3334 15.2303L28.6917 15.1388L28.3667 14.7976C28.075 14.5063 28.0084 14.473 27.725 14.5063L27.4167 14.5479L27.5584 14.2899C27.8834 13.7073 28.9334 12.7752 29.9917 12.1427C31.3667 11.3187 31.9917 10.7445 32.3917 9.92052C32.6917 9.32961 32.7084 9.23807 32.7084 8.53897C32.7084 7.86484 32.6834 7.73168 32.4834 7.3738C32.35 7.14909 32.25 6.95767 32.25 6.94103C32.25 6.91606 32.3417 6.92438 32.45 6.95767C32.5584 6.98264 32.8084 6.95767 33.0084 6.90774L33.3667 6.80787L33.0167 6.47496C32.5834 6.07548 32.2 6.05051 32.025 6.41671C31.9334 6.60813 31.9417 6.69967 32.1334 7.1158C32.3834 7.65677 32.475 8.46406 32.35 8.90516C32.2834 9.12155 32.2667 9.14652 32.2584 9.00503C32.25 8.73039 32.0417 8.37252 31.7584 8.13116C31.4917 7.90645 30.275 7.43206 30.1917 7.52361C30.1 7.61516 30.325 8.80529 30.4917 9.14652C30.7417 9.62091 31.45 9.9122 31.8584 9.69581C32.15 9.546 32.1417 9.62091 31.825 10.0953C31.5334 10.5447 30.9 11.119 30.4 11.4019L30.0667 11.585L30.2084 11.3687C30.4084 11.069 30.35 10.3533 30.1 10.0037C29.9084 9.73742 28.675 8.70542 28.6167 8.76368C28.5417 8.83026 28.3334 10.0953 28.3334 10.4365C28.3334 11.0607 28.8334 11.6683 29.4417 11.7931C29.6667 11.8347 29.65 11.8514 29.1084 12.2176C28.8 12.4173 28.375 12.7419 28.175 12.9333C27.85 13.2412 27.8167 13.2579 27.8667 13.0665C28.15 11.9845 28.1834 11.7348 28.1417 10.7777C28.1167 9.94549 28.0667 9.6542 27.8584 9.05497C27.6084 8.32258 27.25 7.6651 26.8584 7.19903L26.65 6.94935L26.7917 7.23232L26.9334 7.51529L26.7167 7.45703C26.325 7.35716 25.75 7.2989 25.75 7.35716C25.75 7.39045 25.8584 7.63181 25.9917 7.89813C26.3 8.49735 26.5917 8.65548 26.9917 8.45574L27.2417 8.32258L27.45 9.00503C28.0084 10.8526 27.9667 11.4602 27.1417 13.6407C26.7334 14.731 26.725 14.7476 26.6334 14.4813C26.5334 14.1734 26.25 13.932 25.8834 13.8488L25.6417 13.7905L25.7084 14.1983C25.7834 14.7143 26.0334 15.0056 26.35 14.964C26.4834 14.939 26.5834 14.939 26.5834 14.9557C26.5834 14.9723 26.4167 15.3718 26.2167 15.8379C25.6167 17.2444 25.5334 17.802 25.825 18.4429L25.975 18.7758L24.8 18.7508C23.4667 18.7092 22.9834 18.5927 22.7917 18.2431C22.675 18.0267 22.675 18.0267 22.6667 18.2098C22.6667 18.5094 22.8917 18.8756 23.1917 19.0254C23.3917 19.1336 23.7917 19.1836 24.75 19.2252C25.875 19.2751 26.275 19.3417 26.4834 19.5248C26.5 19.5331 26.4 19.6496 26.2584 19.7828C26.0917 19.9326 25.8584 20.3404 25.625 20.8814C25.4167 21.3641 25.15 21.8884 25.025 22.0465L24.8084 22.3462L25.0334 22.1381C25.1584 22.0216 25.5084 21.5472 25.8084 21.0728C26.4334 20.0991 26.65 19.9326 27.0584 20.0991C27.2334 20.174 27.35 20.2905 27.3834 20.4403C27.5 20.9147 27.075 22.0465 26.45 22.8954C26.0167 23.4947 24.9667 24.4434 24.6834 24.51C24.1334 24.6265 23.6417 24.1189 22.975 22.7623C22.7667 22.3462 22.575 21.9217 22.5417 21.8135C22.4917 21.6387 22.5 21.6221 22.6334 21.6803C23.2 21.93 23.875 21.7386 24.225 21.2309C24.4084 20.9646 24.9417 19.4749 24.875 19.4083C24.825 19.3583 23.7667 19.5498 23.3167 19.6912C22.85 19.8411 22.45 20.2655 22.3667 20.69C22.3417 20.8481 22.2834 20.9563 22.25 20.9147C22.2167 20.8814 22.0917 20.4736 21.975 20.0158C21.4417 17.9518 21.375 16.8616 21.7417 16.1209C22.3584 14.8641 23.9417 15.0972 24.5 16.5287C24.625 16.8449 24.6584 16.8865 24.6667 16.7201C24.675 16.254 24.4084 15.6381 24.05 15.2803L23.7 14.9307L24.35 14.5812C25.8834 13.7489 26.875 12.6503 27.0417 11.61L27.0917 11.2771L26.95 11.5268C26.7584 11.868 26.2584 12.4839 26.1667 12.4839C26.125 12.4839 26.0667 12.3424 26.0417 12.1676C26.0167 12.0012 25.8334 11.3687 25.6417 10.7777C25.3667 9.92052 25.2917 9.57097 25.2917 9.09658C25.2917 8.45574 25.2334 8.39748 25.0834 8.87187C24.95 9.26303 25.0167 9.82065 25.325 10.8194C25.9334 12.8501 25.7167 13.3411 23.75 14.3481C23.15 14.6561 22.6667 14.8808 22.6667 14.8558C22.6667 14.8308 22.8 14.5895 22.975 14.3315C23.375 13.7073 24.0334 12.384 24.1917 11.8597C24.4084 11.1856 24.4834 10.7611 24.5834 9.57097C24.7334 7.83987 24.9834 6.81619 25.55 5.60941C26.1 4.43593 26.9667 3.52877 27.8917 3.15425C28.2334 3.01277 28.25 2.99612 28 3.04606C27.6334 3.11264 27.0167 3.42057 26.6834 3.70354C26.325 4.00315 25.9084 4.59406 25.4584 5.41799C25.0334 6.21696 25.0334 6.23361 25.175 4.60238C25.2584 3.62864 25.4 2.72147 25.5417 2.2887C25.5917 2.15554 25.5834 2.14722 25.5084 2.24709C25.3 2.53838 25.0667 3.52877 24.875 5.02683C24.6584 6.67471 24.4667 7.88148 24.4 7.94806C24.3834 7.96471 24.15 7.5569 23.8834 7.0409C23.4167 6.15038 23.4 6.07548 23.4334 5.60941C23.4584 5.22658 23.575 4.88535 23.9167 4.16961C24.1917 3.5787 24.375 3.07102 24.4 2.82135C24.45 2.29702 24.3167 2.29702 24.1834 2.8047C24.125 3.02941 23.8417 3.71186 23.55 4.32774C23.2584 4.94361 22.9834 5.54283 22.9334 5.65935C22.8584 5.85909 22.8334 5.83412 22.55 5.24322C22.2084 4.52748 21.9167 3.47051 21.9167 2.93786C21.9167 2.73812 21.975 2.43851 22.0417 2.27205C22.175 1.9558 22.1667 1.83928 22.025 2.01405ZM15.0417 17.053C15.525 17.2694 15.9917 17.8436 16.5334 18.8756C17.2417 20.2322 17.8084 20.8065 19.1667 21.5472C19.7 21.8385 19.7584 21.8884 19.55 21.8884C19.3667 21.8884 19.2084 21.9883 18.9417 22.2629C18.5334 22.6957 18.5084 22.7623 18.775 22.8372C19.5084 23.0286 20.2167 22.754 20.15 22.2962C20.125 22.1631 20.1417 22.0549 20.1834 22.0549C20.225 22.0549 20.425 22.213 20.6417 22.4044C21.425 23.1285 22.4167 25.8666 22.4167 27.3231V27.8391L21.775 27.1982C21.4167 26.8487 20.675 26.2245 20.125 25.8C19.1084 25.026 18.1084 24.1105 17.6584 23.5363L17.4 23.22L17.6417 23.27C17.95 23.3282 18.375 23.0036 18.4417 22.6624C18.5 22.3462 18.4084 21.6387 18.3084 21.6387C18.2667 21.6387 18.05 21.7719 17.825 21.93C17.4167 22.238 17.1917 22.6458 17.3 22.9121C17.4 23.1784 17.2667 23.0536 16.6417 22.2796C15.4417 20.8065 14.975 20.432 13.2 19.5331C12.3334 19.0837 11.5 18.6176 11.3417 18.4845L11.05 18.2431L11.5084 18.1183C12.1167 17.9352 12.375 17.6689 12.3 17.2777L12.2417 16.9864L12.7667 16.9531C14.1834 16.8782 14.7084 16.8949 15.0417 17.053Z" fill="white" fill-opacity="0.75"/>
<path d="M13.3 17.0613C13.175 17.1029 12.9917 17.2028 12.9 17.286C12.725 17.4358 12.425 18.0184 12.4167 18.2015C12.4167 18.3346 13.2834 18.5011 13.6167 18.4428C13.7667 18.4095 13.9834 18.2847 14.1 18.1599C14.3417 17.9102 14.5584 17.2527 14.4334 17.1279C14.325 17.0197 13.575 16.9697 13.3 17.0613Z" fill="white" fill-opacity="0.75"/>
<path d="M15.25 17.8686C15 17.9601 14.8333 18.1682 14.7 18.576C14.625 18.8007 14.5917 19.0088 14.6167 19.0337C14.7083 19.1336 15.5333 18.8839 15.725 18.7092C15.9667 18.4761 15.9833 18.0184 15.7583 17.8936C15.5833 17.802 15.45 17.7937 15.25 17.8686Z" fill="white" fill-opacity="0.75"/>
<path d="M16.2334 19.8743C15.6167 20.4486 15.5084 20.9812 15.95 21.2725C16.1334 21.389 16.175 21.389 16.4084 21.2725C16.55 21.1976 16.7 21.0644 16.75 20.9812C16.8584 20.7732 16.85 20.2655 16.7167 19.8493L16.6167 19.5164L16.2334 19.8743Z" fill="white" fill-opacity="0.75"/>
<path d="M19.675 23.3532C19.1167 23.9691 19.0084 24.3186 19.2334 24.8263C19.425 25.2591 19.6834 25.3839 20.0667 25.2258C20.3834 25.0926 20.5834 24.7264 20.5834 24.2853C20.5834 23.9025 20.2834 22.8871 20.1667 22.8871C20.1334 22.8871 19.9084 23.0952 19.675 23.3532Z" fill="white" fill-opacity="0.75"/>
<path d="M26.95 2.29704C26.7916 2.67156 26.8583 2.97117 27.125 3.09601C27.3833 3.21252 27.5833 3.07104 27.5833 2.7631C27.5833 2.54672 27.2666 1.99743 27.1416 1.99743C27.1083 1.99743 27.0166 2.13059 26.95 2.29704Z" fill="white" fill-opacity="0.75"/>
<path d="M23.1334 2.47179C23.25 2.97947 23.3584 3.12096 23.675 3.14592C24.0167 3.17089 24.125 3.03773 24.0083 2.71315C23.9334 2.53837 23.7334 2.42186 23.2667 2.2887C23.0917 2.23876 23.0834 2.25541 23.1334 2.47179Z" fill="white" fill-opacity="0.75"/>
<path d="M33.25 2.3719C33.25 2.44681 33.3 2.6299 33.3667 2.78803C33.55 3.22913 34.1667 3.31236 34.1667 2.89623C34.1667 2.62158 34.075 2.52171 33.725 2.3719C33.3417 2.21377 33.25 2.21377 33.25 2.3719Z" fill="white" fill-opacity="0.75"/>
<path d="M25.675 2.63824C25.5417 3.12095 25.5667 3.45386 25.7584 3.69521C26.225 4.28612 26.8584 3.53708 26.4334 2.89624C26.2917 2.68818 25.9 2.33031 25.8 2.33031C25.775 2.33031 25.7167 2.47179 25.675 2.63824Z" fill="white" fill-opacity="0.75"/>
<path d="M29.4417 2.49673C29.3417 2.53834 29.2 2.66318 29.125 2.7797C28.95 3.0377 29.0584 3.27073 29.4334 3.46215C29.75 3.62028 30.0584 3.57035 30.5667 3.27905L30.9334 3.06267L30.625 2.8546C30.3167 2.64654 29.8084 2.40518 29.6917 2.42183C29.6584 2.42183 29.5417 2.45512 29.4417 2.49673Z" fill="white" fill-opacity="0.75"/>
<path d="M31.5917 2.73812C31.4917 2.87128 31.4167 3.07102 31.4167 3.18754C31.4167 3.3956 31.6084 3.66193 31.75 3.66193C32.0334 3.66193 32.1917 3.01276 32 2.65489C31.875 2.4385 31.7917 2.45515 31.5917 2.73812Z" fill="white" fill-opacity="0.75"/>
<path d="M11.7583 2.92957C11.7167 3.03776 11.625 3.26247 11.55 3.44557C11.2833 4.08641 11.475 4.6357 12.0917 4.95196C12.4333 5.13505 12.4917 5.11009 12.6667 4.71892C12.9833 4.02815 12.825 3.4206 12.2167 3.00447L11.8333 2.73815L11.7583 2.92957Z" fill="white" fill-opacity="0.75"/>
<path d="M17.6 2.84631C17.4334 3.01276 17.4917 3.31238 17.7417 3.59535C17.875 3.74515 18.0084 3.85335 18.0334 3.82838C18.0584 3.80341 18.1 3.62864 18.1334 3.43722C18.175 3.15425 18.15 3.0627 18.0084 2.92122C17.8084 2.72147 17.7417 2.70483 17.6 2.84631Z" fill="white" fill-opacity="0.75"/>
<path d="M19.9167 3.08767C19.3667 3.53709 19.2167 3.92826 19.4501 4.2778C19.6334 4.5691 19.9501 4.56077 20.2584 4.25284C20.4667 4.03645 20.5001 3.95322 20.4917 3.56206C20.4834 3.32071 20.4584 3.02941 20.4251 2.92122C20.3751 2.72148 20.3667 2.72148 19.9167 3.08767Z" fill="white" fill-opacity="0.75"/>
<path d="M15.9584 3.95324C15.3417 4.38602 15.15 4.88537 15.4834 5.18498C15.7 5.38473 15.95 5.35976 16.2417 5.11008C16.4834 4.90202 16.5 4.86873 16.5 4.27782C16.5 3.9366 16.475 3.66195 16.4417 3.67027C16.4 3.67027 16.1917 3.80343 15.9584 3.95324Z" fill="white" fill-opacity="0.75"/>
<path d="M22.95 3.8367C22.475 4.0198 22.2667 4.30276 22.4167 4.58573C22.55 4.81876 22.95 4.7938 23.15 4.5358C23.2917 4.3527 23.475 3.77012 23.4 3.70354C23.3833 3.68689 23.1833 3.75347 22.95 3.8367Z" fill="white" fill-opacity="0.75"/>
<path d="M20.9584 3.99483C20.4917 4.34438 20.3334 4.56076 20.3334 4.84373C20.3334 5.22657 20.475 5.40967 20.7584 5.40967C21.1417 5.40967 21.5 5.01851 21.5 4.59405C21.5 4.20289 21.4167 3.74515 21.3417 3.74515C21.3167 3.74515 21.1417 3.86167 20.9584 3.99483Z" fill="white" fill-opacity="0.75"/>
<path d="M18.5834 4.21956C18.3334 4.31111 18.1667 4.5275 18.1667 4.74388C18.1667 5.2266 18.7667 5.07679 18.8667 4.56911C18.95 4.13633 18.9167 4.09472 18.5834 4.21956Z" fill="white" fill-opacity="0.75"/>
<path d="M13.4167 4.55246L12.9584 4.85207L13.4584 5.09343C13.9917 5.35143 14.325 5.35143 14.6 5.11007C14.85 4.87704 14.8667 4.66898 14.6584 4.44427C14.3834 4.14465 13.9834 4.18627 13.4167 4.55246Z" fill="white" fill-opacity="0.75"/>
<path d="M28.6 4.34439C28.4834 4.46091 28.4667 4.78549 28.575 4.98523C28.6584 5.13504 29.3084 5.46794 29.375 5.39304C29.4834 5.29317 29.2917 4.61072 29.1167 4.43594C28.9 4.21955 28.75 4.19459 28.6 4.34439Z" fill="white" fill-opacity="0.75"/>
<path d="M27.625 4.40265C27.325 4.52749 27 5.07678 27 5.45962C27 5.70097 27.8333 5.50123 28.1333 5.20162C28.5917 4.74388 28.2167 4.1613 27.625 4.40265Z" fill="white" fill-opacity="0.75"/>
<path d="M24.0833 5.42632C23.7833 5.65103 23.7 5.76755 23.6833 6.00058C23.65 6.40007 23.825 6.54987 24.1583 6.40839C24.4833 6.27523 24.625 5.91735 24.5333 5.47626L24.4583 5.13503L24.0833 5.42632Z" fill="white" fill-opacity="0.75"/>
<path d="M25.8 5.46792C25.6917 6.13373 25.7333 6.40838 25.9917 6.66638C26.2667 6.94102 26.5 6.97431 26.6833 6.75792C27.0333 6.35844 26.9167 5.87573 26.3583 5.45128C26.15 5.29315 25.95 5.15999 25.9167 5.15999C25.8833 5.15999 25.8333 5.30147 25.8 5.46792Z" fill="white" fill-opacity="0.75"/>
<path d="M16.9 5.37639C16.6333 5.51787 16.5167 5.85078 16.6667 6.03387C16.8917 6.30852 17.2083 6.10045 17.325 5.59278C17.4083 5.19329 17.3167 5.14336 16.9 5.37639Z" fill="white" fill-opacity="0.75"/>
<path d="M36.75 5.96728C36.7583 7.00761 37.125 7.73167 37.7583 7.92309C38.175 8.03961 38.4667 7.95638 38.625 7.65677C38.85 7.21567 38.7417 6.74961 38.3167 6.35012C38.15 6.19199 36.9333 5.57612 36.8 5.57612C36.775 5.57612 36.75 5.7509 36.75 5.96728Z" fill="white" fill-opacity="0.75"/>
<path d="M13.6834 5.82581C13.45 5.9673 13.4084 6.03388 13.4334 6.26691C13.4834 6.80788 14.0417 6.57485 14.1417 5.95898C14.2 5.6011 14.1 5.57614 13.6834 5.82581Z" fill="white" fill-opacity="0.75"/>
<path d="M11.1667 6.05885C11.0083 6.13375 10.8667 6.20033 10.85 6.20865C10.8333 6.21697 10.9583 6.43336 11.125 6.69136C11.4333 7.17407 11.7583 7.4071 12.125 7.4071C12.4 7.4071 12.8417 7.22401 12.9833 7.04923C13.1417 6.86614 12.925 6.47497 12.4833 6.15872C12.0833 5.86743 11.6333 5.83414 11.1667 6.05885Z" fill="white" fill-opacity="0.75"/>
<path d="M19.5001 6.09213C19.1917 6.25026 19.1167 6.33348 19.1001 6.54155C19.0667 6.85781 19.2417 7.01593 19.5417 6.94103C19.8001 6.87445 19.9667 6.64142 20.0417 6.21697C20.1167 5.84245 20.0334 5.8258 19.5001 6.09213Z" fill="white" fill-opacity="0.75"/>
<path d="M14.7501 6.13374C14.6834 6.15871 14.5584 6.24194 14.4667 6.31684C14.3084 6.45832 13.8834 7.0742 13.9334 7.10749C14.0751 7.20736 14.9834 7.49033 15.1667 7.49033C15.5584 7.49033 16.1667 6.85781 16.1667 6.45C16.1667 6.18368 15.2 5.96729 14.7501 6.13374Z" fill="white" fill-opacity="0.75"/>
<path d="M27.6667 6.55818C27.225 6.72464 27.0167 7.04922 27.1667 7.32386C27.325 7.61515 27.8584 7.49031 27.9917 7.13244C28.1167 6.80786 28.1834 6.40838 28.1084 6.4167C28.075 6.4167 27.875 6.48328 27.6667 6.55818Z" fill="white" fill-opacity="0.75"/>
<path d="M16.225 6.99094C16.0333 7.14075 15.6917 7.95637 15.7833 8.04791C15.8583 8.12282 16.5333 7.94804 16.7667 7.78991C17.0833 7.57353 17.1833 7.32385 17.05 7.06585C16.9167 6.7912 16.525 6.75791 16.225 6.99094Z" fill="white" fill-opacity="0.75"/>
<path d="M28.8084 7.21566C28.6917 7.32386 28.75 7.79824 28.9 7.92308C29.0917 8.09786 29.5917 8.34754 29.6417 8.2976C29.725 8.20605 29.55 7.45702 29.4084 7.31553C29.25 7.1574 28.9167 7.10747 28.8084 7.21566Z" fill="white" fill-opacity="0.75"/>
<path d="M41.9 7.82323C41.7084 8.44743 41.7167 8.63885 41.9167 8.96343C42.0834 9.23807 42.2834 9.37956 42.6834 9.49607C42.9084 9.55433 42.9417 9.53769 43.0501 9.27969C43.2001 8.91349 43.2001 8.39749 43.0501 8.03962C42.9417 7.78162 42.3417 7.32388 42.1167 7.32388C42.075 7.32388 41.975 7.54859 41.9 7.82323Z" fill="white" fill-opacity="0.75"/>
<path d="M11.6834 7.75666C11.4917 7.99802 11.2334 8.7304 11.1917 9.14653C11.1334 9.6875 11.3001 10.0703 11.7084 10.32C12.0834 10.5531 12.2251 10.5281 12.5501 10.2035C12.7917 9.96215 12.8334 9.86228 12.8334 9.5377C12.8334 9.32131 12.7751 9.03002 12.7001 8.88021C12.5667 8.63053 11.8501 7.65679 11.8001 7.65679C11.7834 7.65679 11.7334 7.70673 11.6834 7.75666Z" fill="white" fill-opacity="0.75"/>
<path d="M36.6 8.02296C36.1 8.48903 35.975 8.85522 36.2 9.19645C36.4 9.49606 36.7583 9.47942 37.0334 9.14651C37.275 8.86355 37.3084 8.50567 37.1334 7.94806L37.0334 7.61516L36.6 8.02296Z" fill="white" fill-opacity="0.75"/>
<path d="M9.92501 8.26433C9.71668 8.86355 9.74168 9.12156 10.0417 9.40452C10.325 9.67085 10.6417 9.5793 10.8 9.17981C10.875 9.01336 10.9083 8.79697 10.8833 8.68878C10.825 8.48071 10.3417 7.80658 10.2 7.76497C10.1583 7.74833 10.0333 7.97304 9.92501 8.26433Z" fill="white" fill-opacity="0.75"/>
<path d="M14.2501 8.49736C14.2501 9.31297 14.5084 9.7291 15.0167 9.73743C15.4501 9.73743 15.6751 8.99672 15.3501 8.59723C15.2084 8.42246 14.4417 7.90646 14.3167 7.90646C14.2834 7.90646 14.2501 8.17278 14.2501 8.49736Z" fill="white" fill-opacity="0.75"/>
<path d="M16.0334 8.46407C15.9584 8.63884 15.875 8.9551 15.8584 9.17149C15.8167 9.50439 15.8417 9.58762 16.025 9.77072C16.2917 10.037 16.45 10.0454 16.7084 9.77904C16.9417 9.55433 16.9834 9.14652 16.8084 8.86355C16.625 8.55562 16.3 8.15613 16.2334 8.15613C16.2 8.15613 16.1084 8.29762 16.0334 8.46407Z" fill="white" fill-opacity="0.75"/>
<path d="M8.07506 8.84689C7.82506 8.95508 7.5334 9.09656 7.42506 9.17147L7.2334 9.30463L7.6834 9.63753C7.92506 9.82063 8.24173 10.0287 8.39173 10.1036C9.3084 10.5613 10.2751 9.70411 9.6084 9.02998C9.17506 8.60553 8.79173 8.5556 8.07506 8.84689Z" fill="white" fill-opacity="0.75"/>
<path d="M18.3333 8.8469C17.7417 9.08826 17.175 9.50439 17.0417 9.78736C16.675 10.553 17.375 11.1106 18.0917 10.6279C18.45 10.3866 18.6 9.95381 18.5667 9.27136C18.5417 8.76368 18.5417 8.76368 18.3333 8.8469Z" fill="white" fill-opacity="0.75"/>
<path d="M22.625 9.25471C22.75 10.062 23.175 10.5197 23.6417 10.3533C23.8334 10.2867 23.8834 10.2201 23.9 9.97046C23.9334 9.53768 23.8 9.33794 23.3084 9.10491C22.6584 8.80529 22.5584 8.83026 22.625 9.25471Z" fill="white" fill-opacity="0.75"/>
<path d="M20.7667 9.11322C20.0583 9.32961 19.7333 9.73742 19.95 10.1619C20.0917 10.4532 20.5917 10.4864 20.8667 10.2118C21.0667 10.0037 21.25 9.52935 21.25 9.17148C21.25 8.96342 21.25 8.96342 20.7667 9.11322Z" fill="white" fill-opacity="0.75"/>
<path d="M35.1667 9.27967C35.1667 9.77071 35.5833 10.1619 35.925 9.9871C36.0083 9.93716 36.0833 9.84561 36.0833 9.77903C36.0833 9.46277 35.9 9.29632 35.4084 9.15483C35.1917 9.08825 35.1667 9.1049 35.1667 9.27967Z" fill="white" fill-opacity="0.75"/>
<path d="M26.5084 9.61259C26.4084 9.87059 26.3334 10.1452 26.3334 10.2368C26.3334 10.5198 26.5167 10.8027 26.775 10.9109C27.0084 11.0108 27.0417 11.0025 27.2167 10.7861C27.5167 10.4449 27.4834 10.0204 27.125 9.53769C26.9584 9.32962 26.7917 9.15485 26.75 9.15485C26.7084 9.15485 26.6 9.36291 26.5084 9.61259Z" fill="white" fill-opacity="0.75"/>
<path d="M37.5084 9.41284C37.2584 9.45445 37.0417 9.50439 37.025 9.52103C36.9667 9.57929 37.775 10.5863 37.9834 10.7195C38.2834 10.9109 38.85 10.9026 39.075 10.7028C39.475 10.345 39.1417 9.57929 38.5167 9.40452C38.1667 9.31297 38.1334 9.31297 37.5084 9.41284Z" fill="white" fill-opacity="0.75"/>
<path d="M13.0917 9.87892C12.6917 10.4282 12.6583 10.7361 12.9583 11.0274C13.0667 11.144 13.2 11.2355 13.25 11.2355C13.6167 11.2355 13.9583 10.7112 13.8667 10.2951C13.7833 9.90389 13.575 9.40453 13.4917 9.40453C13.4583 9.40453 13.275 9.6126 13.0917 9.87892Z" fill="white" fill-opacity="0.75"/>
<path d="M9.93337 10.1535C9.51671 10.3366 9.33337 10.6695 9.33337 11.2105C9.33337 11.7432 9.42504 12.2342 9.51671 12.2342C9.55837 12.2342 9.79171 12.0844 10.0417 11.9013L10.4834 11.5767L10.5417 12.3008C10.6167 13.2495 10.7 13.5075 11.05 13.8155C11.275 14.0152 11.4167 14.0652 11.7084 14.0652C12.2 14.0652 12.4167 13.7988 12.4167 13.1996C12.4167 12.5421 12.1584 12.2342 11.1834 11.7432C10.7584 11.5268 10.6667 11.4519 10.7167 11.3353C10.85 11.0357 10.85 10.4864 10.725 10.2867C10.5417 10.0204 10.325 9.97876 9.93337 10.1535Z" fill="white" fill-opacity="0.75"/>
<path d="M5.34171 10.7777C5.13338 11.3354 5.12504 11.5517 5.30004 11.8014C5.60838 12.2508 6.00004 12.2009 6.21671 11.6849C6.31671 11.4435 6.31671 11.3603 6.22504 11.1273C6.10004 10.836 5.69171 10.32 5.58338 10.32C5.54171 10.32 5.43338 10.5281 5.34171 10.7777Z" fill="white" fill-opacity="0.75"/>
<path d="M36.0001 10.5281C35.7501 10.836 36.2001 11.2854 36.6834 11.1939C37.2084 11.094 37.2417 11.0191 36.9001 10.6945C36.5584 10.3782 36.1834 10.3117 36.0001 10.5281Z" fill="white" fill-opacity="0.75"/>
<path d="M15.4251 11.0274C15.1917 11.6433 15.2001 11.9429 15.4584 12.1926C15.7167 12.4589 15.9417 12.4589 16.1584 12.1843C16.4167 11.8597 16.3834 11.4852 16.0584 11.0191C15.9084 10.8027 15.7417 10.6113 15.6917 10.5946C15.6417 10.578 15.5167 10.7694 15.4251 11.0274Z" fill="white" fill-opacity="0.75"/>
<path d="M18.4751 10.9109C18.1917 11.0774 17.8501 12.0677 18.0667 12.0677C18.1084 12.0677 18.3251 12.0095 18.5667 11.9429C19.1834 11.7598 19.5334 11.2188 19.2334 10.9192C19.1084 10.7944 18.6751 10.7944 18.4751 10.9109Z" fill="white" fill-opacity="0.75"/>
<path d="M3.29171 11.2105C2.91671 11.3021 1.83337 11.7515 1.83337 11.8181C1.83337 11.9346 2.59171 12.5671 3.04171 12.8251C3.50837 13.0914 3.93337 13.133 4.36671 12.9499C5.65837 12.409 4.70837 10.8693 3.29171 11.2105Z" fill="white" fill-opacity="0.75"/>
<path d="M36.75 11.5018C36.4417 11.66 36.3667 11.7432 36.35 11.9512C36.3167 12.2675 36.4917 12.4256 36.7917 12.3507C37.05 12.2841 37.2167 12.0511 37.2917 11.6267C37.3667 11.2521 37.2833 11.2355 36.75 11.5018Z" fill="white" fill-opacity="0.75"/>
<path d="M37.7 12.1759C37.7583 12.5172 37.85 12.8667 37.9167 12.9416C38.1167 13.183 38.475 13.3161 38.925 13.3161H39.35L39.3167 12.8584C39.25 12.101 38.8 11.6516 38.0583 11.585L37.6083 11.5517L37.7 12.1759Z" fill="white" fill-opacity="0.75"/>
<path d="M30.8333 12.0261C30.5667 12.7086 30.5 12.9499 30.5 13.3328C30.5 13.6823 30.5417 13.7822 30.75 13.9903C31.0917 14.3315 31.4583 14.3065 31.725 13.907C32.0667 13.3994 31.95 12.9333 31.3 12.1926L30.9333 11.7765L30.8333 12.0261Z" fill="white" fill-opacity="0.75"/>
<path d="M6.70834 12.2425C6.82501 12.6087 6.99168 12.8834 7.21668 13.0581C7.49168 13.2745 7.67501 13.2745 7.91668 13.0831C8.06668 12.9583 8.09168 12.8834 8.05001 12.6753C7.95834 12.2758 7.72501 12.126 7.15834 12.0844C6.65001 12.0428 6.65001 12.0511 6.70834 12.2425Z" fill="white" fill-opacity="0.75"/>
<path d="M24.1334 12.4506C24.0167 12.7502 24.0834 13.3161 24.25 13.4826C24.575 13.8072 24.9167 13.6158 24.9167 13.0998C24.9167 12.95 24.8167 12.7835 24.6167 12.6004C24.2834 12.2841 24.2084 12.2592 24.1334 12.4506Z" fill="white" fill-opacity="0.75"/>
<path d="M35.8 12.7502C35.6583 12.9499 35.625 13.3744 35.7333 13.5492C35.7917 13.6241 35.8667 13.6074 36.0917 13.4576C36.3333 13.2995 36.375 13.2246 36.375 12.9416C36.375 12.642 36.35 12.6087 36.15 12.5837C36 12.5671 35.8917 12.617 35.8 12.7502Z" fill="white" fill-opacity="0.75"/>
<path d="M4.94166 12.9C4.53333 13.1497 4.39166 13.4243 4.39166 13.9736C4.4 14.5063 4.48333 14.9807 4.56666 14.9807C4.71666 14.9807 5.64166 14.1983 5.775 13.957C5.96666 13.6074 5.91666 13.0831 5.66666 12.8834C5.43333 12.6919 5.275 12.6919 4.94166 12.9Z" fill="white" fill-opacity="0.75"/>
<path d="M13.2417 13.0415C12.8667 13.4327 12.75 13.6491 12.75 13.9736C12.75 14.2649 13 14.5645 13.2417 14.5645C13.325 14.5645 13.4917 14.4647 13.6167 14.3482C13.7917 14.1651 13.8333 14.0485 13.825 13.7406C13.825 13.5325 13.7583 13.2163 13.6833 13.0415L13.5417 12.7253L13.2417 13.0415Z" fill="white" fill-opacity="0.75"/>
<path d="M20.675 13.0748C20.1667 13.5741 20.4083 14.1484 21.1167 14.1484C21.4167 14.1484 21.5 14.0984 21.9333 13.6407C22.2 13.3661 22.4167 13.1081 22.4167 13.0664C22.4167 12.9749 21.7333 12.8168 21.3 12.8168C21 12.8168 20.8833 12.8667 20.675 13.0748Z" fill="white" fill-opacity="0.75"/>
<path d="M29.0834 13.907L28.8167 14.4896L28.9584 14.8641C29.0917 15.2137 29.5584 15.6465 29.7917 15.6465C29.925 15.6465 30.2334 15.0639 30.25 14.7726C30.2917 14.1484 30.25 14.0402 29.875 13.674C29.6667 13.4743 29.4667 13.3161 29.425 13.3161C29.3917 13.3161 29.2334 13.5825 29.0834 13.907Z" fill="white" fill-opacity="0.75"/>
<path d="M36.375 13.5991C36.1333 13.7073 35.25 14.5895 35.25 14.731C35.25 14.8059 36.1667 14.9807 36.575 14.9807C37.3667 14.9807 37.8917 14.0652 37.3083 13.699C37.025 13.5159 36.65 13.4743 36.375 13.5991Z" fill="white" fill-opacity="0.75"/>
<path d="M6.1167 13.8654C6.02504 14.3481 6.12504 15.3635 6.28337 15.6048C6.48337 15.9128 6.90837 16.1458 7.2667 16.1458C7.65837 16.1458 7.91671 15.8462 7.91671 15.3801C7.91671 14.7892 7.62504 14.448 6.60837 13.8321L6.17504 13.5741L6.1167 13.8654Z" fill="white" fill-opacity="0.75"/>
<path d="M14.2584 14.1151C14.0417 14.6977 14.0334 14.9807 14.2584 15.2636C14.5 15.5716 14.8667 15.5632 15.0417 15.2303C15.225 14.8725 15.1917 14.5479 14.9334 14.1817C14.5 13.5908 14.4667 13.5908 14.2584 14.1151Z" fill="white" fill-opacity="0.75"/>
<path d="M41.6667 14.2566C41.675 15.0139 41.7834 15.4051 42.0834 15.6631C42.7333 16.254 43.4917 15.6298 43.1417 14.7976C43 14.4563 42.625 14.1484 42.0584 13.907L41.6667 13.7406V14.2566Z" fill="white" fill-opacity="0.75"/>
<path d="M45.2084 13.8821C45.075 13.9736 44.9084 14.0985 44.85 14.1734C44.5667 14.5063 45.5334 15.2054 46.1584 15.1221C46.3334 15.1055 46.625 14.9807 46.8084 14.8641L47.1417 14.6394L46.6917 14.19C46.275 13.7656 46.2167 13.7323 45.85 13.7323C45.6167 13.7323 45.3584 13.7905 45.2084 13.8821Z" fill="white" fill-opacity="0.75"/>
<path d="M10.5916 14.3481C10.375 14.964 10.4083 15.3219 10.6916 15.5216C10.9666 15.713 11.225 15.6714 11.3916 15.4301C11.625 15.0639 11.575 14.7227 11.2083 14.2399C11.025 14.0069 10.8583 13.8155 10.8333 13.8155C10.8 13.8155 10.6916 14.0568 10.5916 14.3481Z" fill="white" fill-opacity="0.75"/>
<path d="M16.3334 13.9653C16.175 14.0901 15.8 14.9723 15.875 15.0472C15.8917 15.0639 16.1167 15.0306 16.375 14.9723C17.075 14.8142 17.4584 14.2899 17.1167 13.9486C16.9417 13.7739 16.5584 13.7822 16.3334 13.9653Z" fill="white" fill-opacity="0.75"/>
<path d="M25.0583 14.7643C24.5083 14.964 24.325 15.222 24.4667 15.5965C24.5417 15.7963 24.9417 15.763 25.15 15.5383C25.2917 15.3885 25.5083 14.6394 25.4083 14.6478C25.3917 14.6561 25.2333 14.706 25.0583 14.7643Z" fill="white" fill-opacity="0.75"/>
<path d="M4.78335 15.3635C4.57502 15.8545 4.54168 16.3539 4.69168 16.5952C5.15002 17.286 5.94168 16.512 5.54168 15.763C5.46668 15.6132 5.29168 15.3885 5.15835 15.2636L4.91668 15.0389L4.78335 15.3635Z" fill="white" fill-opacity="0.75"/>
<path d="M40.725 15.455C40.1917 16.2956 40.0917 16.77 40.3667 17.1861C40.6917 17.6772 41.1834 17.6439 41.5 17.1279C41.7334 16.745 41.7084 16.4205 41.4167 15.8379C41.05 15.1138 40.9667 15.0639 40.725 15.455Z" fill="white" fill-opacity="0.75"/>
<path d="M11.7667 15.5882C11.625 15.738 11.5833 15.8545 11.625 15.9711C11.75 16.3705 12.15 16.046 12.0333 15.6382L11.9583 15.3802L11.7667 15.5882Z" fill="white" fill-opacity="0.75"/>
<path d="M35.275 15.8878C35.3417 16.537 35.5 16.8449 35.8417 16.9781C36.3667 17.2028 36.7417 16.7284 36.5 16.1458C36.4084 15.9211 35.875 15.5716 35.425 15.4384C35.225 15.3802 35.225 15.3802 35.275 15.8878Z" fill="white" fill-opacity="0.75"/>
<path d="M28.1 15.9378C27.2167 16.0959 26.75 16.3539 26.525 16.8116C26.2584 17.3276 26.275 17.6855 26.575 17.9851C26.9917 18.4013 27.725 18.2847 28.1917 17.7354C28.3584 17.5274 28.9167 16.1125 28.9167 15.8712C28.9167 15.7963 28.85 15.8046 28.1 15.9378Z" fill="white" fill-opacity="0.75"/>
<path d="M38.8 15.9461C38.6167 16.1208 38.6333 16.3372 38.8333 16.5203C38.9583 16.6368 39.0917 16.6618 39.4167 16.6285C39.65 16.6035 39.8667 16.5619 39.9 16.5286C39.9833 16.4371 39.2833 15.8129 39.0917 15.8129C39 15.8129 38.8667 15.8712 38.8 15.9461Z" fill="white" fill-opacity="0.75"/>
<path d="M46.2833 15.971C45.8 16.2623 45.55 17.2361 45.925 17.3526C46.1833 17.4358 46.7584 17.3276 47.0584 17.1445C47.3667 16.9614 47.5417 16.6618 47.6167 16.1625L47.6667 15.8129H47.1084C46.7 15.8129 46.4667 15.8545 46.2833 15.971Z" fill="white" fill-opacity="0.75"/>
<path d="M22.1667 16.5703C21.925 17.2111 21.9917 17.6023 22.3834 17.827C22.6417 17.9768 22.6417 17.9768 22.8667 17.7604C23.1834 17.4441 23.1584 17.028 22.8084 16.512C22.6584 16.2956 22.4917 16.1042 22.4417 16.0876C22.3917 16.0709 22.2667 16.2873 22.1667 16.5703Z" fill="white" fill-opacity="0.75"/>
<path d="M2.87498 16.3289C3.14998 17.2111 3.74164 17.6522 4.10831 17.2444C4.28331 17.053 4.28331 16.9531 4.12498 16.6369C3.97498 16.3622 3.81664 16.279 3.22498 16.1958C2.82498 16.1375 2.81664 16.1375 2.87498 16.3289Z" fill="white" fill-opacity="0.75"/>
<path d="M1.54171 17.2278C1.31671 17.3609 0.975041 17.6023 0.791707 17.7604L0.458374 18.0517L1.12504 18.3596C1.92504 18.7342 2.43337 18.8007 2.86671 18.601C3.35837 18.368 3.55837 17.802 3.29171 17.4275C2.95837 16.9448 2.17504 16.8532 1.54171 17.2278Z" fill="white" fill-opacity="0.75"/>
<path d="M6.42505 17.6522C6.20005 18.2015 6.19172 18.6675 6.41672 18.8923C6.69172 19.1669 7.05005 19.1086 7.24171 18.7508C7.39171 18.4595 7.35005 18.1932 7.08338 17.7937C6.67505 17.1778 6.63338 17.1695 6.42505 17.6522Z" fill="white" fill-opacity="0.75"/>
<path d="M18.5417 17.6772C17.7583 18.0434 17.5 18.3513 17.5 18.9256C17.5 19.1753 17.55 19.4333 17.625 19.5331C17.875 19.8827 18.475 19.8494 18.9 19.4499C19.1167 19.2502 19.3 18.6593 19.3833 17.9102C19.45 17.2777 19.4083 17.2694 18.5417 17.6772Z" fill="white" fill-opacity="0.75"/>
<path d="M23.7917 17.4941C23.275 17.6772 23.0084 18.1183 23.2667 18.3763C23.55 18.6592 24.0667 18.2847 24.1417 17.7437C24.1917 17.3692 24.175 17.3609 23.7917 17.4941Z" fill="white" fill-opacity="0.75"/>
<path d="M8.01668 17.7022C7.79168 18.3014 7.82502 18.5427 8.16668 18.7258C8.29168 18.7924 8.36668 18.7758 8.50002 18.6426C8.59168 18.5511 8.66668 18.3929 8.66668 18.2931C8.66668 18.11 8.28335 17.4775 8.16668 17.4775C8.13335 17.4775 8.06668 17.5773 8.01668 17.7022Z" fill="white" fill-opacity="0.75"/>
<path d="M4.09169 18.7508L3.65002 19.0338L4.12502 19.4582C4.55002 19.841 4.63336 19.891 4.96669 19.891C5.17502 19.891 5.40836 19.8577 5.49169 19.8078C5.63336 19.7329 5.63336 19.7412 5.49169 20.0408C5.20002 20.6567 5.20836 20.7066 5.55836 20.7815C5.73336 20.8148 6.05002 20.8398 6.26669 20.8481C6.58336 20.8481 6.70002 20.8065 6.91669 20.5984C7.18336 20.3404 7.39169 19.8244 7.30836 19.608C7.24169 19.4332 6.71669 19.35 6.28336 19.4499C5.91669 19.5331 5.84169 19.4998 6.00002 19.3417C6.13336 19.2085 5.78336 18.8174 5.38336 18.6343C4.89169 18.4096 4.59169 18.4345 4.09169 18.7508Z" fill="white" fill-opacity="0.75"/>
<path d="M38.425 18.8174C38.2917 19.2002 38.3083 19.4333 38.4917 19.5914C38.8333 19.8993 39.2167 19.4749 39 19.0421C38.8667 18.8007 38.6583 18.5594 38.575 18.5594C38.5417 18.5594 38.475 18.6759 38.425 18.8174Z" fill="white" fill-opacity="0.75"/>
<path d="M46.85 18.9921C46.4584 19.5081 46.5167 19.9742 46.975 19.9742C47.0834 19.9742 47.2167 19.8827 47.3084 19.7578C47.425 19.5664 47.4334 19.4915 47.3417 19.1503C47.2834 18.9422 47.2167 18.7425 47.175 18.7092C47.1417 18.6676 47 18.8007 46.85 18.9921Z" fill="white" fill-opacity="0.75"/>
<path d="M34.95 18.9256C34.475 19.1336 34.2334 19.608 34.3834 20.0158C34.4667 20.2239 34.8667 20.3904 35.2917 20.3904C35.6584 20.3904 35.7084 20.3571 36.275 19.8078C36.6501 19.4416 36.8417 19.2002 36.7917 19.1503C36.7084 19.0754 35.5334 18.8091 35.3167 18.8091C35.2584 18.8174 35.0917 18.8673 34.95 18.9256Z" fill="white" fill-opacity="0.75"/>
<path d="M1.16669 19.1669C0.783354 19.4166 0.0166877 20.5485 0.158354 20.64C0.341688 20.7482 1.27502 20.8065 1.66669 20.7316C2.27502 20.6067 2.76669 19.9576 2.63335 19.4332C2.51669 18.9838 1.66669 18.8257 1.16669 19.1669Z" fill="white" fill-opacity="0.75"/>
<path d="M45.4667 19.3084C45.225 19.5997 45.1833 19.9825 45.375 20.1407C45.7 20.407 46.0334 19.9909 45.9 19.4915C45.7834 19.0421 45.7167 19.0171 45.4667 19.3084Z" fill="white" fill-opacity="0.75"/>
<path d="M48.0417 19.3417C47.7334 19.4748 47.6167 19.6163 47.5417 19.9159C47.4917 20.099 47.525 20.1823 47.7417 20.382C48.1 20.7149 48.5 20.7732 48.9417 20.5651C49.325 20.3737 49.9167 19.9159 49.9167 19.8077C49.9167 19.7245 48.65 19.2252 48.4417 19.2252C48.3584 19.2335 48.175 19.2834 48.0417 19.3417Z" fill="white" fill-opacity="0.75"/>
<path d="M3.03333 19.7994C2.61667 20.0574 2.5 20.2821 2.5 20.8564C2.5 21.4057 2.575 21.8884 2.65833 21.8884C2.78333 21.8884 3.725 21.1227 3.85 20.9147C4.05 20.5984 4.04167 20.1323 3.825 19.8577C3.625 19.5997 3.39167 19.583 3.03333 19.7994Z" fill="white" fill-opacity="0.75"/>
<path d="M31.9667 20.0741C32.0667 20.923 32.4584 21.3807 32.9584 21.2559C33.2917 21.1727 33.3751 20.6483 33.1084 20.2405C33.0001 20.0657 32.2084 19.6413 31.9917 19.6413C31.9417 19.6413 31.9334 19.8077 31.9667 20.0741Z" fill="white" fill-opacity="0.75"/>
<path d="M36.7167 20.0158C36.5917 20.174 36.4334 20.4403 36.3667 20.5984C36.2667 20.8481 36.2667 20.923 36.3667 21.1727C36.5 21.4889 36.7417 21.6055 36.9917 21.4723C37.2167 21.3558 37.4167 21.0562 37.4167 20.8315C37.4167 20.5901 37.0917 19.7246 37 19.7246C36.9667 19.7246 36.8334 19.8577 36.7167 20.0158Z" fill="white" fill-opacity="0.75"/>
<path d="M40.6084 19.9243C40.3334 20.0491 40.0084 20.5318 39.7917 21.1311L39.6667 21.4973L40.2667 21.4307C41 21.3641 41.3334 21.2309 41.5667 20.9313C41.7833 20.665 41.8167 20.1323 41.625 19.9742C41.4417 19.8244 40.9 19.7911 40.6084 19.9243Z" fill="white" fill-opacity="0.75"/>
<path d="M46.25 20.6483C46.0917 20.9313 46.2833 21.2642 46.725 21.4723C46.9333 21.5721 47.1083 21.6387 47.125 21.6221C47.2 21.5472 47 20.7815 46.875 20.64C46.675 20.4236 46.3667 20.4236 46.25 20.6483Z" fill="white" fill-opacity="0.75"/>
<path d="M25.9167 21.3391C25.9167 21.7386 26.0417 22.0216 26.2834 22.1797C26.5333 22.3462 26.8 22.2796 26.875 22.0466C26.9417 21.8551 26.7833 21.4224 26.6417 21.3641C26.5833 21.3391 26.4 21.2642 26.2334 21.1893L25.9167 21.0562V21.3391Z" fill="white" fill-opacity="0.75"/>
<path d="M31.125 22.0798C31.3 23.2367 31.6334 23.7194 32.25 23.7194C32.625 23.7194 32.8334 23.503 32.8334 23.1118C32.8334 22.5126 32.425 22.1215 31.5167 21.8551L31.0667 21.7303L31.125 22.0798Z" fill="white" fill-opacity="0.75"/>
<path d="M44.175 22.0798C44.0667 22.1298 43.9 22.2796 43.8083 22.4044C43.6417 22.6291 43.6417 22.6458 43.775 22.9287C43.9917 23.3781 44.3583 23.5696 44.925 23.528C45.3667 23.4863 46.25 23.1784 46.25 23.0536C46.25 22.962 45.4167 22.2879 45.0917 22.1214C44.75 21.9467 44.4583 21.93 44.175 22.0798Z" fill="white" fill-opacity="0.75"/>
<path d="M22.9667 22.1215C22.9417 22.1631 23.05 22.3378 23.2083 22.5043C23.425 22.7456 23.5417 22.8122 23.7167 22.7873C24.0417 22.754 24.15 22.5376 23.975 22.2713C23.85 22.0882 23.7667 22.0549 23.4167 22.0549C23.1917 22.0549 22.9917 22.0882 22.9667 22.1215Z" fill="white" fill-opacity="0.75"/>
<path d="M8.38333 22.3545C8.30833 22.4211 8.25 22.5709 8.25 22.6791C8.25 22.8538 8.275 22.8705 8.43333 22.8122C8.66667 22.729 8.79167 22.5293 8.725 22.3545C8.65834 22.188 8.55 22.188 8.38333 22.3545Z" fill="white" fill-opacity="0.75"/>
<path d="M24.5167 22.6874C24.3667 22.7873 24.3334 22.8955 24.3334 23.27C24.3334 23.5196 24.3667 23.7194 24.4084 23.7194C24.5667 23.7194 25.0834 23.1535 25.0834 22.987C25.0834 22.8206 24.8834 22.5542 24.7667 22.5542C24.7334 22.5542 24.6167 22.6125 24.5167 22.6874Z" fill="white" fill-opacity="0.75"/>
<path d="M35.7167 22.7706C35.4417 23.0369 35.625 23.4447 36.1417 23.711C36.425 23.8525 36.5 23.8192 36.5 23.5612C36.5 23.1784 36.3417 22.8372 36.1167 22.729C35.8584 22.6125 35.8667 22.6125 35.7167 22.7706Z" fill="white" fill-opacity="0.75"/>
<path d="M42.1917 22.8621C41.8917 22.9787 42.2417 24.0107 42.6834 24.3352C42.8167 24.4268 43.0917 24.51 43.375 24.535L43.8417 24.5766L43.7834 24.1272C43.7084 23.4863 43.55 23.1618 43.2334 22.9703C42.975 22.8122 42.4417 22.754 42.1917 22.8621Z" fill="white" fill-opacity="0.75"/>
<path d="M34.025 23.6361C33.5917 23.8109 33.7584 24.4851 34.2834 24.6765C34.4834 24.7431 35.3667 24.6265 35.4834 24.5183C35.5417 24.4518 35.1834 24.0273 34.8584 23.7776C34.5417 23.5446 34.3417 23.5113 34.025 23.6361Z" fill="white" fill-opacity="0.75"/>
<path d="M8.35001 24.4934C8.30001 24.5433 8.24168 24.6931 8.20834 24.818C8.15001 25.0427 8.15834 25.0427 8.40834 24.9595C8.65834 24.8679 8.80834 24.6266 8.70834 24.4684C8.63334 24.3519 8.45834 24.3602 8.35001 24.4934Z" fill="white" fill-opacity="0.75"/>
<path d="M46.1917 24.5766C45.6417 24.7764 45.4 25.2175 45.7083 25.4671C46.0083 25.7168 46.4583 25.3506 46.5583 24.768C46.6083 24.4435 46.5917 24.4351 46.1917 24.5766Z" fill="white" fill-opacity="0.75"/>
<path d="M6.75834 25.001C6.98334 25.3922 7.11668 25.4838 7.39168 25.4505C7.56668 25.4338 7.63334 25.3756 7.65001 25.2341C7.70001 24.9095 7.45001 24.7181 6.99168 24.7181H6.59167L6.75834 25.001Z" fill="white" fill-opacity="0.75"/>
<path d="M2.01669 25.6752C1.87502 25.7418 1.61669 25.8916 1.45002 26.0164L1.15002 26.2495L1.55002 26.4492C2.17502 26.7655 2.40002 26.8071 2.71669 26.6739C3.26669 26.4492 3.25836 25.8999 2.70836 25.6669C2.36669 25.5254 2.35836 25.5254 2.01669 25.6752Z" fill="white" fill-opacity="0.75"/>
<path d="M46.3 25.7418C45.9667 26.0747 46.05 26.5074 46.5417 26.9652C46.7417 27.1566 46.8417 27.1733 47.5917 27.1982C48.2 27.2232 48.4167 27.2065 48.4167 27.1316C48.4167 26.9652 47.8667 26.108 47.5917 25.85C47.4083 25.6669 47.2333 25.6003 46.925 25.567C46.5667 25.5337 46.4834 25.5587 46.3 25.7418Z" fill="white" fill-opacity="0.75"/>
<path d="M5.05003 26.1413C4.68336 26.5158 4.65003 26.574 4.77503 26.6406C4.85003 26.6905 5.12503 26.7322 5.38336 26.7405C5.80003 26.7571 5.8667 26.7322 6.05003 26.5241C6.30003 26.2328 6.30837 26.0164 6.0667 25.85C5.7417 25.6169 5.50836 25.6835 5.05003 26.1413Z" fill="white" fill-opacity="0.75"/>
<path d="M6.83337 25.7751C6.76671 25.8 6.65837 25.8749 6.60837 25.9498C6.49171 26.0996 6.45837 26.7655 6.56671 26.832C6.60837 26.857 6.77504 26.7571 6.94171 26.624C7.26671 26.3576 7.35004 26.0164 7.15004 25.8167C7.04171 25.7085 7.02504 25.7085 6.83337 25.7751Z" fill="white" fill-opacity="0.75"/>
<path d="M37.7917 26.058C37.6667 26.1579 37.4167 26.4326 37.2334 26.6573C36.8334 27.1733 36.8667 27.2066 37.9 27.2731C38.6 27.3148 38.6417 27.3148 38.8917 27.0984C39.3334 26.7239 39.35 26.2328 38.9167 26.0081C38.5667 25.825 38.0667 25.85 37.7917 26.058Z" fill="white" fill-opacity="0.75"/>
<path d="M41.425 26.9402C40.8334 27.2315 40.5167 28.147 40.8667 28.5382C41.1084 28.8045 41.5667 28.9127 41.975 28.8045C42.375 28.6963 42.8667 28.1886 43.325 27.4229C43.5584 27.0401 43.5917 26.9402 43.4917 26.8736C43.275 26.7405 41.7417 26.7904 41.425 26.9402Z" fill="white" fill-opacity="0.75"/>
<path d="M2.1 27.1316C1.80833 27.3147 1.50833 27.8557 1.5 28.2136C1.5 28.4549 1.80833 29.9613 1.86667 30.0196C1.94167 30.1028 2.90833 29.2622 3.18333 28.8794C3.40833 28.5798 3.45 28.4383 3.45 28.0887C3.43333 27.1316 2.81667 26.6989 2.1 27.1316Z" fill="white" fill-opacity="0.75"/>
<path d="M11.3584 27.1233C10.8917 27.4146 10.875 27.889 11.325 28.1886C11.8334 28.5298 12.3084 28.4133 13.0417 27.7642L13.45 27.4063L12.9584 27.2149C12.25 26.9485 11.6917 26.9153 11.3584 27.1233Z" fill="white" fill-opacity="0.75"/>
<path d="M7.59169 27.3314C7.30002 27.6476 7.26669 28.1304 7.52502 28.5631C7.80002 29.0292 8.30835 29.5202 8.40836 29.412C8.53336 29.2872 8.75002 28.4549 8.75002 28.1137C8.75002 27.3064 8.05835 26.8404 7.59169 27.3314Z" fill="white" fill-opacity="0.75"/>
<path d="M4.3417 28.2802C4.1417 28.3551 3.95836 28.4633 3.9417 28.5132C3.92503 28.5631 4.08336 28.7213 4.28336 28.8627C4.72503 29.179 5.15836 29.2206 5.4167 28.9626C5.6417 28.7379 5.62503 28.663 5.3417 28.3717C5.0667 28.0971 4.8667 28.0804 4.3417 28.2802Z" fill="white" fill-opacity="0.75"/>
<path d="M15.1667 28.2635C14.6167 28.4882 14.475 29.2289 14.8917 29.72C15.225 30.1194 15.7 30.2942 16.625 30.3525L17.425 30.4024L17.2167 29.8448C16.975 29.204 16.6417 28.6713 16.3333 28.4466C16.1167 28.2885 15.3917 28.1803 15.1667 28.2635Z" fill="white" fill-opacity="0.75"/>
<path d="M43.625 28.9127C43.3167 29.0458 43.0417 29.3454 42.925 29.6451C42.8417 29.8615 42.8584 29.8864 43.1834 30.0529C43.6084 30.2693 44.2334 30.2942 44.5167 30.1111C44.6334 30.0362 44.8417 29.8282 44.9834 29.6451L45.25 29.3205L44.7667 29.1041C44.1167 28.8128 43.9167 28.7795 43.625 28.9127Z" fill="white" fill-opacity="0.75"/>
<path d="M36.9834 29.4453C36.6917 29.67 36.4584 29.9031 36.4584 29.9613C36.4584 30.0862 37.5 30.4607 37.85 30.4607C38.15 30.4607 38.55 30.261 38.6667 30.0529C38.7084 29.9613 38.75 29.7699 38.75 29.6368C38.75 29.3039 38.3584 29.0459 37.8584 29.0459C37.5667 29.0459 37.4167 29.1124 36.9834 29.4453Z" fill="white" fill-opacity="0.75"/>
<path d="M40.3834 29.6617C40.0584 29.9863 39.875 30.4524 39.9417 30.7853C39.9667 30.9018 40.075 31.1598 40.1834 31.3512L40.3834 31.7007L40.8834 31.2596C41.3584 30.8269 41.375 30.8019 41.375 30.4024C41.375 29.9447 41.0667 29.3787 40.8167 29.3787C40.7334 29.3787 40.5417 29.5036 40.3834 29.6617Z" fill="white" fill-opacity="0.75"/>
<path d="M10.2667 29.5202C10.1334 29.5702 9.87502 30.0862 9.79169 30.444C9.73335 30.7104 9.74169 30.7187 9.97502 30.6688C10.4667 30.5606 10.925 30.3608 11 30.211C11.1167 30.0029 11.1084 29.6867 10.9834 29.5618C10.8834 29.462 10.4667 29.437 10.2667 29.5202Z" fill="white" fill-opacity="0.75"/>
<path d="M3.90836 29.7366C3.75003 29.8365 3.43336 30.2027 3.19169 30.5439C2.78336 31.1348 2.77502 31.1681 2.94169 31.2347C3.28336 31.3595 4.44169 31.3262 4.72503 31.1848C5.04169 31.0183 5.31669 30.6521 5.38336 30.3026C5.42503 30.0945 5.39169 30.003 5.18336 29.7949C4.85836 29.4703 4.33336 29.4453 3.90836 29.7366Z" fill="white" fill-opacity="0.75"/>
<path d="M11.9167 29.7533C11.7833 29.9197 11.8833 30.0446 12.1583 30.0446C12.4833 30.0446 12.65 29.8365 12.425 29.72C12.2 29.5951 12.0417 29.6035 11.9167 29.7533Z" fill="white" fill-opacity="0.75"/>
<path d="M6.01669 29.8448C5.79169 30.0029 5.77502 30.3774 5.99169 30.5772C6.25002 30.8185 6.67502 30.8352 7.09169 30.6271C7.72502 30.3109 7.72502 30.2942 7.24169 29.9863C6.75002 29.6783 6.32502 29.6284 6.01669 29.8448Z" fill="white" fill-opacity="0.75"/>
<path d="M8.33333 30.1028C8 30.2276 7.5 30.9184 7.5 31.2596C7.5 31.3762 7.56667 31.3928 8.01667 31.3429C8.65 31.268 8.98333 31.1015 9.09167 30.8102C9.28333 30.3025 8.85833 29.9114 8.33333 30.1028Z" fill="white" fill-opacity="0.75"/>
<path d="M41.975 30.6188C41.8083 30.8019 41.6333 31.0932 41.575 31.2763C41.4917 31.5676 41.5 31.6508 41.7083 32.1169C41.8333 32.3915 41.9583 32.6246 41.975 32.6246C42 32.6246 42.2333 32.4082 42.5083 32.1419C42.9417 31.7174 43 31.6175 43 31.3346C43 30.9434 42.6417 30.2942 42.425 30.2942C42.3417 30.2942 42.1333 30.4441 41.975 30.6188Z" fill="white" fill-opacity="0.75"/>
<path d="M34.5417 30.727C34.1667 30.8602 34 31.0433 33.7834 31.526C33.675 31.7673 33.5834 31.9754 33.5834 31.992C33.5834 32.0087 33.8834 32.0503 34.25 32.0836C35.0084 32.1502 35.2167 32.0669 35.5 31.6009C35.675 31.3262 35.725 30.8352 35.5917 30.7603C35.425 30.6521 34.7834 30.6355 34.5417 30.727Z" fill="white" fill-opacity="0.75"/>
<path d="M10.6417 30.9684C10.4584 31.0766 10.175 31.6675 10.1667 31.9338C10.1667 32.1086 10.175 32.1086 10.6417 32.0004C11.3334 31.8422 11.725 31.3013 11.4 30.9767C11.275 30.8518 10.8417 30.8518 10.6417 30.9684Z" fill="white" fill-opacity="0.75"/>
<path d="M13.1833 31.0017C12.9417 31.1764 12.75 31.5593 12.75 31.8755C12.75 32.1252 13.05 32.8243 13.3 33.1572C13.4417 33.357 13.475 33.3237 13.8667 32.6745C14.2417 32.0586 14.275 31.5093 13.9833 31.1764C13.7333 30.9018 13.425 30.8352 13.1833 31.0017Z" fill="white" fill-opacity="0.75"/>
<path d="M44.7167 30.985C44.3417 31.2597 44.85 31.8339 45.2667 31.6176C45.5 31.501 45.8334 31.2014 45.8334 31.1182C45.8334 31.035 45.35 30.8768 45.0834 30.8768C44.9667 30.8768 44.8 30.9268 44.7167 30.985Z" fill="white" fill-opacity="0.75"/>
<path d="M6.38333 31.5509C6.01666 31.8422 6.14166 32.275 6.64166 32.4664C6.89999 32.5663 7.19166 32.4914 7.65833 32.2334L8.02499 32.017L7.82499 31.8672C7.51666 31.6342 6.95833 31.3762 6.77499 31.3762C6.68333 31.3762 6.50833 31.4511 6.38333 31.5509Z" fill="white" fill-opacity="0.75"/>
<path d="M8.75835 31.8422C8.59168 32.0586 8.45835 32.3582 8.51668 32.4165C8.53335 32.4331 8.70001 32.3832 8.88335 32.3C9.20835 32.1502 9.39168 31.8672 9.28335 31.6924C9.20001 31.5593 8.92501 31.6342 8.75835 31.8422Z" fill="white" fill-opacity="0.75"/>
<path d="M38.5583 31.7757C38.3333 32.0253 38.3833 32.3333 38.6833 32.583C38.9167 32.7827 38.9917 32.7993 39.35 32.7577C39.575 32.7244 39.8584 32.6662 39.9834 32.6162L40.2084 32.533L39.7334 32.0753C39.35 31.7091 39.2083 31.6259 38.975 31.6259C38.8083 31.6259 38.6333 31.6841 38.5583 31.7757Z" fill="white" fill-opacity="0.75"/>
<path d="M17.2417 32.1585C17.125 32.2334 16.975 32.3998 16.9167 32.5413C16.8334 32.7494 16.8334 32.8243 16.95 32.9991C17.1584 33.3153 17.4917 33.4984 17.85 33.4901C18.1667 33.4818 19.25 32.9991 19.25 32.8742C19.25 32.8409 19.0084 32.6495 18.7084 32.4581C18.0917 32.0586 17.6 31.9587 17.2417 32.1585Z" fill="white" fill-opacity="0.75"/>
<path d="M43.1667 32.1335C42.8001 32.2833 41.975 33.2072 42.1 33.332C42.1834 33.4235 43.4084 33.5567 43.6251 33.5068C43.9501 33.4235 44.3334 33.0157 44.3334 32.7494C44.3334 32.4082 44.1917 32.2251 43.8501 32.1252C43.4834 32.0253 43.4417 32.0253 43.1667 32.1335Z" fill="white" fill-opacity="0.75"/>
<path d="M32.9583 32.4165C32.8167 32.5497 32.75 32.7078 32.75 32.8909C32.75 33.1739 33.0583 33.798 33.2167 33.848C33.3417 33.8896 33.75 33.1073 33.75 32.8409C33.75 32.6162 33.425 32.2084 33.25 32.2084C33.2 32.2084 33.0667 32.3 32.9583 32.4165Z" fill="white" fill-opacity="0.75"/>
<path d="M6.59999 33.1738C6.23333 33.4318 6.44999 34.106 6.97499 34.314C7.39166 34.4805 7.83333 34.5637 7.83333 34.4888C7.83333 34.4555 7.77499 34.2058 7.69999 33.9395C7.59999 33.6066 7.48333 33.3819 7.31666 33.2487C7.03333 33.0074 6.85833 32.9907 6.59999 33.1738Z" fill="white" fill-opacity="0.75"/>
<path d="M37.8834 33.3403C37.6084 33.6066 37.7917 34.0144 38.3084 34.2808C38.5917 34.4223 38.6667 34.389 38.6667 34.131C38.6667 33.7481 38.5084 33.4069 38.2834 33.2987C38.0251 33.1822 38.0334 33.1822 37.8834 33.3403Z" fill="white" fill-opacity="0.75"/>
<path d="M11.3334 33.5401C11.1584 33.8563 11.1417 34.364 11.2917 34.7468C11.4084 35.0548 11.5167 35.1713 11.8584 35.371C12.1001 35.5125 12.3167 35.6207 12.3417 35.6207C12.3667 35.6207 12.45 35.3461 12.5334 35.0131C12.6334 34.5887 12.65 34.339 12.5917 34.1975C12.475 33.8979 12.0834 33.565 11.7251 33.4735C11.4584 33.3986 11.4084 33.4069 11.3334 33.5401Z" fill="white" fill-opacity="0.75"/>
<path d="M4.16669 33.4901C4.16669 33.6483 4.70002 34.6303 4.88335 34.8217C5.54169 35.4709 6.50835 34.9549 6.11669 34.1559C5.86669 33.6566 5.60835 33.5151 4.83335 33.4735C4.46669 33.4568 4.16669 33.4568 4.16669 33.4901Z" fill="white" fill-opacity="0.75"/>
<path d="M44.5084 33.7398C44.3167 33.9728 44.4334 34.3889 44.7417 34.597C45.1667 34.88 45.25 34.8467 45.25 34.4139C45.25 33.848 44.775 33.4152 44.5084 33.7398Z" fill="white" fill-opacity="0.75"/>
<path d="M15.0167 33.9645L14.6583 34.1309L14.85 34.3889C15.3417 35.0464 15.6417 35.2878 15.95 35.2878C16.2917 35.2878 16.7417 35.1213 16.8917 34.9466C17.05 34.7551 16.775 34.3057 16.3417 34.0311C15.9 33.7481 15.5333 33.7315 15.0167 33.9645Z" fill="white" fill-opacity="0.75"/>
<path d="M42.4584 33.848C42.1917 33.9146 41.7917 34.2558 41.4667 34.6969C41.3 34.9216 41.1667 35.1213 41.1667 35.1463C41.1667 35.2295 42.0084 35.371 42.5 35.371C42.9334 35.371 43.0334 35.3377 43.2917 35.113C43.525 34.9049 43.5834 34.7967 43.5834 34.5471C43.5834 34.1642 43.5167 34.0727 43.1417 33.9146C42.8334 33.7897 42.75 33.7814 42.4584 33.848Z" fill="white" fill-opacity="0.75"/>
<path d="M32.7833 34.6553C32.5417 34.8966 32.3083 35.1796 32.2583 35.2712C32.175 35.4293 32.2 35.4459 32.7583 35.5375C33.5834 35.679 33.9834 35.6124 34.275 35.2878C34.7584 34.7468 34.4417 34.2059 33.6417 34.2059C33.2417 34.2059 33.2 34.2308 32.7833 34.6553Z" fill="white" fill-opacity="0.75"/>
<path d="M36.125 34.9049C35.8667 35.0131 35.2584 35.629 35.0917 35.9369C35.0084 36.095 35.0334 36.1117 35.7 36.2032C36.5084 36.3281 36.7667 36.2781 37.0917 35.9536C37.5251 35.5291 37.3417 34.9632 36.7334 34.8383C36.4084 34.7718 36.425 34.7718 36.125 34.9049Z" fill="white" fill-opacity="0.75"/>
<path d="M9.92504 35.0298C9.70004 35.2545 9.62504 35.7289 9.75004 36.0368C9.85004 36.2865 10.5 36.944 10.8084 37.1021C10.975 37.1937 10.9834 37.1687 11.0834 36.5112C11.1667 35.9619 11.1667 35.7539 11.0917 35.5125C10.9 34.9382 10.275 34.6802 9.92504 35.0298Z" fill="white" fill-opacity="0.75"/>
<path d="M5.55001 35.3877C5.43334 35.4959 5.28334 35.7788 5.21667 36.0202L5.09167 36.4613L5.40001 36.403C6.17501 36.2699 6.62501 35.8371 6.43334 35.4209C6.30834 35.138 5.85001 35.1213 5.55001 35.3877Z" fill="white" fill-opacity="0.75"/>
<path d="M7.99167 35.7788C7.775 35.9952 7.75 36.0784 7.75 36.5278C7.75 36.8108 7.78333 37.0355 7.81667 37.0355C7.95833 37.0355 8.65833 36.5362 8.74167 36.378C8.86667 36.1616 8.85833 35.7622 8.73333 35.6373C8.55833 35.4626 8.25 35.5291 7.99167 35.7788Z" fill="white" fill-opacity="0.75"/>
<path d="M15.3334 35.8371C15.125 36.0202 14.5834 36.9024 14.5834 37.0771C14.5834 37.1687 15.8584 37.1104 16.125 37.0022C16.6417 36.7858 16.8667 36.145 16.5417 35.7871C16.3084 35.5291 15.675 35.5541 15.3334 35.8371Z" fill="white" fill-opacity="0.75"/>
</g>
<defs>
<clipPath id="clip0_16:2">
<rect width="50" height="48.4375" fill="white"/>
</clipPath>
</defs>
</svg>
