<svg width="30" height="27" viewBox="0 0 30 27" fill="none" xmlns="http://www.w3.org/2000/svg">
<path d="M7.80125 0.0399952L10.3932 1.96C9.68925 2.856 8.95325 4.136 8.18525 5.8C7.41725 7.464 6.77725 9.32 6.26525 11.368C5.81725 13.352 5.72125 15.304 5.97725 17.224C6.80925 16.84 7.60925 16.648 8.37725 16.648C9.59325 16.648 10.6173 17.096 11.4493 17.992C12.3453 18.888 12.7933 20.008 12.7933 21.352C12.7933 23.144 12.2493 24.52 11.1613 25.48C10.1373 26.44 8.92125 26.92 7.51325 26.92C5.27325 26.92 3.57725 26.088 2.42525 24.424C1.27325 22.696 0.69725 20.616 0.69725 18.184C0.69725 16.584 0.98525 14.632 1.56125 12.328C2.20125 10.024 3.03325 7.784 4.05725 5.608C5.14525 3.368 6.39325 1.512 7.80125 0.0399952ZM24.6973 0.0399952L27.2893 1.96C26.5853 2.856 25.8493 4.136 25.0813 5.8C24.3133 7.464 23.6733 9.32 23.1613 11.368C22.7133 13.352 22.6173 15.304 22.8733 17.224C23.7053 16.84 24.5053 16.648 25.2733 16.648C26.4893 16.648 27.5133 17.096 28.3453 17.992C29.2413 18.888 29.6893 20.008 29.6893 21.352C29.6893 23.144 29.1453 24.52 28.0573 25.48C27.0333 26.44 25.8173 26.92 24.4093 26.92C22.1693 26.92 20.4733 26.088 19.3213 24.424C18.1693 22.696 17.5933 20.616 17.5933 18.184C17.5933 16.584 17.8813 14.632 18.4573 12.328C19.0973 10.024 19.9293 7.784 20.9532 5.608C22.0413 3.368 23.2893 1.512 24.6973 0.0399952Z" fill="#19250E" fill-opacity="0.7"/>
</svg>
