<svg width="15" height="15" viewBox="0 0 15 15" fill="none" xmlns="http://www.w3.org/2000/svg">
<path d="M3.6328 14.6953C3.4453 14.6953 3.2578 14.6484 3.09374 14.5312C2.78905 14.3203 2.62499 13.9453 2.6953 13.5703L3.32811 9.58594L0.585924 6.75C0.328111 6.49219 0.234361 6.09375 0.351549 5.74219C0.468736 5.39062 0.749986 5.15625 1.10155 5.08594L4.92186 4.47656L6.6328 0.84375C6.79686 0.515625 7.12499 0.304688 7.47655 0.304688C7.85155 0.304688 8.15624 0.515625 8.3203 0.84375L10.0781 4.45312L13.8984 5.0625C14.25 5.10937 14.5312 5.36719 14.6484 5.71875C14.7656 6.07031 14.6719 6.46875 14.4141 6.72656L11.6484 9.5625L12.3047 13.5703C12.375 13.9453 12.2109 14.3203 11.9062 14.5312C11.625 14.7422 11.25 14.7656 10.9219 14.6016L7.49999 12.7266L4.07811 14.6016C3.93749 14.6719 3.79686 14.6953 3.6328 14.6953ZM1.17186 6.1875L4.0078 9.09375C4.14842 9.23437 4.21874 9.44531 4.17186 9.65625L3.51561 13.7109C3.49217 13.8047 3.56249 13.8516 3.58592 13.875C3.6328 13.9219 3.67967 13.8984 3.70311 13.875L7.21874 11.9531C7.40624 11.8594 7.61717 11.8594 7.80467 11.9531L11.3203 13.8516C11.3437 13.8516 11.3672 13.875 11.4375 13.8516C11.4609 13.8281 11.5078 13.7812 11.5078 13.6875L10.8515 9.60937C10.8281 9.39844 10.875 9.21094 11.0156 9.04687L13.8281 6.14062C13.8984 6.07031 13.875 6 13.875 5.95312C13.875 5.92969 13.8281 5.85937 13.7812 5.85937L9.84374 5.25C9.6328 5.22656 9.46874 5.08594 9.37499 4.89844L7.61717 1.19531C7.59374 1.125 7.54686 1.125 7.49999 1.125C7.47655 1.125 7.42967 1.14844 7.3828 1.19531L5.62499 4.92187C5.53124 5.10937 5.36717 5.25 5.15624 5.27344L1.24217 5.90625C1.17186 5.90625 1.14842 5.97656 1.14842 6C1.12499 6.02344 1.10155 6.11719 1.17186 6.1875Z" fill="black"/>
</svg>
